<svg width="24" height="22" viewBox="0 0 24 22" fill="none" xmlns="http://www.w3.org/2000/svg">
<mask id="mask0_67_124" style="mask-type:luminance" maskUnits="userSpaceOnUse" x="0" y="0" width="24" height="22">
<path d="M24 0V22H-4.00543e-05V0H24ZM14.0353 7.72962C14.0238 7.7293 14.0121 7.7293 14.0003 7.72971C13.8024 7.73673 13.5676 7.8533 13.3653 8.11833C13.2646 8.25017 13.1549 8.37572 13.0419 8.49878C13.0417 8.49895 13.0415 8.49911 13.0413 8.49928C12.9065 8.41011 12.7674 8.32648 12.6332 8.23665C12.5257 8.16337 12.4107 8.09703 12.2839 8.05541C12.2547 8.0458 12.2247 8.03831 12.195 8.02978C12.1521 8.02342 12.1098 8.01085 12.0663 8.0108C11.8046 8.01047 11.67 8.08884 11.4881 8.23827C11.4163 8.3028 11.3498 8.37186 11.2788 8.43705C11.2033 8.49837 11.1258 8.55747 11.049 8.61744C10.9274 8.71489 10.8026 8.80881 10.6813 8.90654C10.5436 9.01579 10.4153 9.1343 10.2854 9.25115C10.1726 9.35568 10.0598 9.46027 9.94952 9.56707C9.8411 9.67428 9.72676 9.77637 9.61361 9.87933C9.50553 9.97784 9.39162 10.0705 9.27779 10.1632C9.15531 10.2624 9.04068 10.3692 8.92878 10.4783C8.81895 10.5842 8.71446 10.6944 8.61368 10.8076C8.51621 10.9139 8.41626 11.0184 8.31565 11.1222C8.19765 11.2378 8.07526 11.3495 7.95588 11.4638C7.82973 11.5882 7.69462 11.7043 7.56146 11.8223C7.43506 11.9312 7.30666 12.0381 7.18218 12.1489C7.04797 12.2603 6.91444 12.3725 6.77754 12.4811C6.66644 12.5724 6.55507 12.6633 6.44497 12.7556C6.3274 12.8601 6.21247 12.967 6.0968 13.0733C5.99843 13.1597 5.90202 13.248 5.80426 13.335C5.70879 13.4235 5.61524 13.5137 5.52064 13.603C5.43039 13.6891 5.3444 13.7787 5.25921 13.869C5.19621 13.9385 5.12868 14.0043 5.06474 14.0731C5.00612 14.1371 4.94411 14.1987 4.88039 14.2586C4.80398 14.3301 4.73734 14.4096 4.66196 14.482C4.59509 14.545 4.53117 14.6102 4.46963 14.6776C4.41853 14.7325 4.36969 14.7889 4.32559 14.8487C4.24784 14.9583 4.19899 15.0853 4.19863 15.2172C4.19862 15.2255 4.19971 15.2337 4.20025 15.2419C4.19816 15.2456 4.1959 15.2492 4.19383 15.253C4.13729 15.3576 4.11124 15.4708 4.09697 15.5859C4.09127 15.6587 4.08069 15.7314 4.06669 15.8033C4.05225 15.8815 4.03148 15.9586 4.01171 16.0358C3.98041 16.1523 3.96643 16.2713 3.96091 16.3909C3.9568 16.4986 3.96906 16.6058 3.97772 16.713C3.98749 16.814 4.00316 16.9143 4.0261 17.0135C4.0465 17.1048 4.08323 17.1919 4.1239 17.277C4.18032 17.3978 4.27558 17.4949 4.37994 17.5826C4.45804 17.6481 4.54882 17.698 4.64165 17.7436C4.70593 17.7733 4.77252 17.7986 4.83723 17.8275C4.89522 17.851 4.95245 17.8755 5.0096 17.9006C5.08175 17.935 5.1564 17.9646 5.23146 17.9932C5.318 18.0269 5.40642 18.0556 5.49661 18.0799C5.61225 18.1105 5.73186 18.1225 5.85147 18.1303C5.95968 18.1359 6.06806 18.1392 6.17642 18.1369C6.26702 18.1325 6.35748 18.1274 6.44732 18.1156C6.50272 18.1079 6.55827 18.1017 6.61346 18.0927C6.67401 18.0847 6.73379 18.0727 6.79345 18.0604C6.88347 18.0401 6.97233 18.016 7.06119 17.9918C7.14945 17.9662 7.23724 17.9392 7.32568 17.9142C7.40227 17.8941 7.47889 17.8744 7.55545 17.8542C7.62778 17.8347 7.69922 17.8127 7.7709 17.7912C7.85661 17.7646 7.93987 17.7318 8.02369 17.7007C8.11246 17.6688 8.19811 17.6308 8.28178 17.589C8.36331 17.5513 8.43537 17.5 8.50541 17.447C8.5746 17.3961 8.63463 17.3361 8.69858 17.28C8.75981 17.2215 8.82383 17.1656 8.88497 17.1069C8.94974 17.0515 9.01828 16.9997 9.08743 16.9489C9.21745 16.8526 9.35473 16.765 9.48881 16.6736C9.61154 16.5913 9.73238 16.5066 9.84887 16.4171C9.95729 16.3328 10.053 16.2367 10.1487 16.1407C10.2231 16.0676 10.2949 15.9923 10.3658 15.9163C10.4382 15.8322 10.5139 15.7508 10.5921 15.6711C10.6782 15.5824 10.7725 15.5008 10.8654 15.4183C10.9661 15.3269 11.0746 15.2433 11.18 15.1565C11.3108 15.0505 11.4409 14.9438 11.5663 14.8325C11.6824 14.7334 11.7854 14.6227 11.8957 14.5185C12.0045 14.4145 12.1089 14.3067 12.2163 14.2013C12.3353 14.0887 12.4549 13.9766 12.5721 13.8624C12.7041 13.7285 12.8399 13.598 12.9746 13.4665C13.1239 13.3216 13.2673 13.1718 13.4087 13.0204C13.5417 12.8799 13.6774 12.7414 13.8127 12.6027C13.9294 12.4789 14.0537 12.3616 14.1733 12.2402C14.2853 12.126 14.4033 12.0171 14.518 11.9053C14.651 11.7752 14.7831 11.6444 14.9143 11.5127C15.0344 11.3989 15.1505 11.2817 15.2669 11.1646C15.37 11.065 15.4684 10.9615 15.5725 10.8629C15.6693 10.7652 15.7855 10.6691 15.83 10.5388C15.8513 10.4763 15.8572 10.4103 15.8708 10.346C15.847 10.2577 15.836 10.1655 15.7992 10.0809C15.7774 10.0308 15.7362 9.98925 15.6978 9.94829C15.5529 9.79353 15.3253 9.68602 15.1347 9.58675C14.8261 9.43087 14.5074 9.29296 14.1929 9.14781C14.1013 9.1055 14.0108 9.06135 13.9209 9.0162C14.0363 8.88728 14.1479 8.75551 14.2486 8.61659C14.6098 8.11825 14.3927 7.74056 14.0353 7.72962ZM14.9228 10.106C14.9159 10.1148 14.9084 10.1231 14.9004 10.1312C14.904 10.1262 14.9055 10.1233 14.9099 10.1175C14.9133 10.1129 14.9263 10.1015 14.9228 10.106Z" fill="white"/>
</mask>
<g mask="url(#mask0_67_124)">
<mask id="mask1_67_124" style="mask-type:luminance" maskUnits="userSpaceOnUse" x="8" y="3" width="13" height="12">
<path d="M20.4058 3.29498V14.1026H8.61563V3.29498H20.4058ZM14.2045 9.10567C14.0388 9.10499 13.8394 9.17152 13.6311 9.3328C13.2788 9.60551 12.9063 9.85511 12.5334 10.1034C12.2797 10.2727 12.0212 10.4358 11.7625 10.5986C10.9162 11.1313 11.5033 11.9151 12.3497 11.3822C12.5513 11.2553 12.7529 11.1281 12.9523 10.9982C12.9724 11.0133 12.9924 11.0284 13.0124 11.0436C13.0933 11.1058 13.1723 11.1702 13.2531 11.2326C13.3365 11.2979 13.4225 11.3604 13.5139 11.416C13.6112 11.4726 13.7201 11.5038 13.8333 11.5189C13.9322 11.5253 13.9922 11.5189 14.0674 11.4836C14.128 11.5206 14.166 11.5464 14.2419 11.5692C14.3698 11.6075 14.4988 11.6015 14.6225 11.5554C14.6951 11.5242 14.7646 11.4878 14.8306 11.446C14.8717 11.4215 14.9132 11.3979 14.9541 11.373C15.0009 11.3428 15.0472 11.3111 15.0875 11.2736C15.125 11.2392 15.1605 11.2032 15.1905 11.1629C15.2232 11.1182 15.2542 11.0724 15.2756 11.022C15.3105 10.9404 15.3297 10.8635 15.3132 10.7739C15.2928 10.7302 15.2931 10.6714 15.2517 10.6426C15.1561 10.5762 15.0429 10.5242 14.9248 10.5042C14.8794 10.4965 14.8328 10.5118 14.7895 10.5357C14.7661 10.5193 14.7427 10.5029 14.7191 10.4867C14.6585 10.4415 14.5922 10.4029 14.533 10.3561C14.4403 10.2838 14.3506 10.2083 14.2598 10.1339C14.2417 10.1185 14.2391 10.1163 14.2327 10.1108C14.2511 10.0968 14.2695 10.0827 14.2878 10.0686C14.8641 9.62296 14.6628 9.10756 14.2045 9.10567ZM15.1814 11.0862C15.1779 11.0899 15.1733 11.0941 15.1684 11.0979C15.1727 11.094 15.1771 11.0901 15.1814 11.0862Z" fill="white"/>
</mask>
<g mask="url(#mask1_67_124)">
<path fill-rule="evenodd" clip-rule="evenodd" d="M14.802 5.34975L18.1642 8.43178L14.2194 12.0479L10.8571 8.9658L14.802 5.34975ZM20.4058 8.43178L14.2194 14.1026L8.61563 8.9658L14.802 3.29498L20.4058 8.43178Z" fill="#438A7E"/>
</g>
<mask id="mask2_67_124" style="mask-type:luminance" maskUnits="userSpaceOnUse" x="2" y="7" width="15" height="13">
<path d="M16.2664 7.08899V19.3068H2.93783V7.08899H16.2664ZM14.2045 9.10565C14.0387 9.10497 13.8393 9.1715 13.631 9.33278C13.2787 9.60549 12.9062 9.85509 12.5333 10.1034C12.2796 10.2727 12.0211 10.4358 11.7624 10.5986C10.9161 11.1313 11.5033 11.915 12.3496 11.3822C12.5512 11.2553 12.7528 11.1281 12.9522 10.9982C12.9723 11.0132 12.9923 11.0283 13.0123 11.0436C13.0932 11.1058 13.1722 11.1702 13.253 11.2326C13.3364 11.2979 13.4224 11.3603 13.5138 11.4159C13.6111 11.4726 13.72 11.5038 13.8333 11.5189C13.9321 11.5252 13.9921 11.5189 14.0673 11.4836C14.1279 11.5206 14.1659 11.5464 14.2418 11.5692C14.3697 11.6075 14.4988 11.6015 14.6224 11.5554C14.695 11.5242 14.7645 11.4878 14.8305 11.446C14.8717 11.4215 14.9131 11.3979 14.954 11.3729C15.0009 11.3428 15.0471 11.3111 15.0874 11.2736C15.1249 11.2392 15.1605 11.2032 15.1905 11.1629C15.2231 11.1182 15.2541 11.0724 15.2755 11.0219C15.3104 10.9403 15.3296 10.8634 15.3131 10.7739C15.2927 10.7301 15.293 10.6713 15.2517 10.6426C15.156 10.5762 15.0428 10.5241 14.9248 10.5042C14.8793 10.4965 14.8327 10.5118 14.7894 10.5357C14.766 10.5193 14.7426 10.5028 14.719 10.4866C14.6584 10.4415 14.5921 10.4029 14.5329 10.356C14.4402 10.2838 14.3505 10.2082 14.2597 10.1339C14.2416 10.1185 14.239 10.1162 14.2326 10.1108C14.251 10.0968 14.2694 10.0827 14.2877 10.0686C14.864 9.62294 14.6627 9.10753 14.2045 9.10565ZM15.1813 11.0861C15.1779 11.0898 15.1732 11.0941 15.1684 11.0979C15.1726 11.094 15.177 11.0901 15.1813 11.0861Z" fill="white"/>
</mask>
<g mask="url(#mask2_67_124)">
<path fill-rule="evenodd" clip-rule="evenodd" d="M10.6624 7.08881L16.2661 12.2255L9.66212 18.2793C8.1678 19.6491 5.74508 19.6491 4.25084 18.2793L4.05834 18.1028C2.56402 16.7331 2.56402 14.5123 4.05834 13.1425L10.6624 7.08881ZM11.8441 14.3347C12.1536 14.051 12.1536 13.5911 11.8441 13.3074L11.0483 12.5779C10.7387 12.2942 10.237 12.2942 9.92753 12.5779C9.61798 12.8615 9.61798 13.3215 9.92753 13.6052L10.7233 14.3347C11.0328 14.6185 11.5346 14.6185 11.8441 14.3347ZM9.5446 16.336C9.85407 16.0523 9.85407 15.5923 9.5446 15.3087L8.87463 14.6945C8.56516 14.4108 8.06335 14.4108 7.75389 14.6945C7.44442 14.9783 7.44442 15.4382 7.75389 15.7219L8.42386 16.336C8.73333 16.6198 9.23513 16.6198 9.5446 16.336Z" fill="#438A7E"/>
</g>
<mask id="mask3_67_124" style="mask-type:luminance" maskUnits="userSpaceOnUse" x="2" y="7" width="15" height="13">
<path d="M16.2664 7.08899V19.3068H2.93783V7.08899H16.2664ZM14.2045 9.10565C14.0387 9.10497 13.8393 9.1715 13.631 9.33278C13.2787 9.60549 12.9062 9.85509 12.5333 10.1034C12.2796 10.2727 12.0211 10.4358 11.7624 10.5986C10.9161 11.1313 11.5033 11.915 12.3496 11.3822C12.5512 11.2553 12.7528 11.1281 12.9522 10.9982C12.9723 11.0132 12.9923 11.0283 13.0123 11.0436C13.0932 11.1058 13.1722 11.1702 13.253 11.2326C13.3364 11.2979 13.4224 11.3603 13.5138 11.4159C13.6111 11.4726 13.72 11.5038 13.8333 11.5189C13.9321 11.5252 13.9921 11.5189 14.0673 11.4836C14.1279 11.5206 14.1659 11.5464 14.2418 11.5692C14.3697 11.6075 14.4988 11.6015 14.6224 11.5554C14.695 11.5242 14.7645 11.4878 14.8305 11.446C14.8717 11.4215 14.9131 11.3979 14.954 11.3729C15.0009 11.3428 15.0471 11.3111 15.0874 11.2736C15.1249 11.2392 15.1605 11.2032 15.1905 11.1629C15.2231 11.1182 15.2541 11.0724 15.2755 11.0219C15.3104 10.9403 15.3296 10.8634 15.3131 10.7739C15.2927 10.7301 15.293 10.6713 15.2517 10.6426C15.156 10.5762 15.0428 10.5241 14.9248 10.5042C14.8793 10.4965 14.8327 10.5118 14.7894 10.5357C14.766 10.5193 14.7426 10.5028 14.719 10.4866C14.6584 10.4415 14.5921 10.4029 14.5329 10.356C14.4402 10.2838 14.3505 10.2082 14.2597 10.1339C14.2416 10.1185 14.239 10.1162 14.2326 10.1108C14.251 10.0968 14.2694 10.0827 14.2877 10.0686C14.864 9.62294 14.6627 9.10753 14.2045 9.10565ZM15.1813 11.0861C15.1779 11.0898 15.1732 11.0941 15.1684 11.0979C15.1726 11.094 15.177 11.0901 15.1813 11.0861Z" fill="white"/>
</mask>
<g mask="url(#mask3_67_124)">
<path fill-rule="evenodd" clip-rule="evenodd" d="M10.6624 9.1435L14.0246 12.2255L13.3894 12.8079C13.2806 12.618 13.139 12.4397 12.9648 12.28L12.169 11.5505C11.2405 10.6994 9.73519 10.6994 8.80671 11.5505C8.35768 11.9621 8.1258 12.4974 8.11114 13.0368C7.57209 13.0789 7.04564 13.2891 6.63314 13.6672C5.70466 14.5183 5.70466 15.8982 6.63314 16.7493L7.30312 17.3634C7.45195 17.4999 7.61567 17.6144 7.78939 17.7071C6.98216 18.0028 6.02522 17.8511 5.37158 17.2519L5.17908 17.0755C4.30377 16.2731 4.30377 14.9722 5.17908 14.1699L10.6624 9.1435ZM16.2661 12.2255L10.6624 7.08881L4.05834 13.1425C2.56402 14.5123 2.56402 16.7331 4.05834 18.1028L4.25084 18.2793C5.74508 19.6491 8.1678 19.6491 9.66212 18.2793L16.2661 12.2255ZM9.59088 16.2899C9.5763 16.3057 9.56092 16.3211 9.5446 16.336C9.52835 16.351 9.51155 16.3651 9.4942 16.3784C9.18283 16.619 8.71708 16.6048 8.42386 16.336L7.75389 15.7219C7.44442 15.4382 7.44442 14.9783 7.75389 14.6945C8.05907 14.4148 8.55129 14.4109 8.86171 14.683C8.86607 14.6867 8.87035 14.6906 8.87463 14.6945L9.5446 15.3087C9.54888 15.3126 9.55308 15.3166 9.55728 15.3205C9.83822 15.5899 9.84939 16.0086 9.59088 16.2899ZM9.92753 13.6052C9.61798 13.3215 9.61798 12.8615 9.92753 12.5779C10.237 12.2942 10.7387 12.2942 11.0483 12.5779L11.8441 13.3074C12.0626 13.5076 12.1269 13.7958 12.0368 14.0477C11.9993 14.1527 11.9351 14.2513 11.8441 14.3347C11.7531 14.4182 11.6455 14.4771 11.531 14.5115C11.2561 14.5939 10.9418 14.535 10.7233 14.3347L9.92753 13.6052Z" fill="#438A7E"/>
</g>
<path fill-rule="evenodd" clip-rule="evenodd" d="M19.8453 2.78115L20.966 3.80857L18.1641 6.37693L17.0434 5.34958L19.8453 2.78115ZM23.2075 3.80857L18.1641 8.43162L14.8019 5.34958L19.8453 0.726471L23.2075 3.80857Z" fill="#438A7E"/>
<path d="M23.7679 5.34951C24.0774 5.06583 24.0774 4.60592 23.7679 4.32217L19.2849 0.21277C18.9754 -0.0709233 18.4736 -0.0709233 18.1641 0.21277C17.8547 0.49647 17.8547 0.95643 18.1641 1.24013L22.6471 5.34951C22.9566 5.63326 23.4584 5.63326 23.7679 5.34951Z" fill="#438A7E"/>
<path fill-rule="evenodd" clip-rule="evenodd" d="M23.7679 4.32217C24.0774 4.60592 24.0774 5.06583 23.7679 5.34951C23.4584 5.63326 22.9566 5.63326 22.6471 5.34951L18.1641 1.24013C17.8547 0.95643 17.8547 0.49647 18.1641 0.21277C18.4736 -0.0709233 18.9754 -0.0709233 19.2849 0.21277L23.7679 4.32217Z" fill="#438A7E"/>
<path d="M3.59432 19.7325C3.90378 19.4488 3.90378 18.9888 3.59432 18.7052C3.28477 18.4215 2.78304 18.4215 2.47357 18.7052L0.23201 20.7599C-0.0774574 21.0435 -0.0774574 21.5035 0.23201 21.7872C0.541478 22.0709 1.04328 22.0709 1.35275 21.7872L3.59432 19.7325Z" fill="#438A7E"/>
<path fill-rule="evenodd" clip-rule="evenodd" d="M2.47357 18.7052L0.23201 20.7599C-0.0774574 21.0435 -0.0774574 21.5035 0.23201 21.7872C0.541478 22.0709 1.04328 22.0709 1.35275 21.7872L3.59432 19.7325C3.90378 19.4488 3.90378 18.9888 3.59432 18.7052C3.28477 18.4215 2.78304 18.4215 2.47357 18.7052Z" fill="#438A7E"/>
<path d="M6.39624 18.1915L4.15476 16.1368L2.47364 17.6778C1.85463 18.2452 1.85463 19.1651 2.47364 19.7325C3.09258 20.2999 4.09619 20.2999 4.71513 19.7325L6.39624 18.1915Z" fill="#438A7E"/>
<mask id="mask4_67_124" style="mask-type:luminance" maskUnits="userSpaceOnUse" x="12" y="2" width="10" height="9">
<path d="M21.7585 2.05472V10.6991H15.289C15.2815 10.6767 15.2713 10.6563 15.2517 10.6426C15.156 10.5762 15.0428 10.5242 14.9248 10.5042C14.8793 10.4965 14.8327 10.5118 14.7895 10.5357C14.766 10.5193 14.7427 10.5029 14.7191 10.4867C14.6584 10.4415 14.5921 10.4029 14.533 10.3561C14.4402 10.2838 14.3505 10.2083 14.2597 10.1339C14.2417 10.1185 14.2391 10.1163 14.2326 10.1108C14.251 10.0968 14.2694 10.0827 14.2877 10.0686C14.864 9.62297 14.6628 9.10755 14.2045 9.10567C14.0387 9.10499 13.8394 9.17152 13.631 9.3328C13.2787 9.60551 12.9062 9.85511 12.5334 10.1034C12.4654 10.1488 12.397 10.1937 12.3283 10.2383V2.05472H21.7585Z" fill="white"/>
</mask>
<g mask="url(#mask4_67_124)">
<path d="M21.5264 10.4863C21.8359 10.2026 21.8359 9.74265 21.5264 9.45897L13.6812 2.26748C13.3717 1.9838 12.8699 1.9838 12.5604 2.26748C12.2509 2.55116 12.2509 3.01114 12.5604 3.29482L20.4057 10.4863C20.7152 10.77 21.2169 10.77 21.5264 10.4863Z" fill="#438A7E"/>
</g>
<mask id="mask5_67_124" style="mask-type:luminance" maskUnits="userSpaceOnUse" x="12" y="2" width="10" height="9">
<path d="M21.7585 2.05472V10.6991H15.289C15.2815 10.6767 15.2713 10.6563 15.2517 10.6426C15.156 10.5762 15.0428 10.5242 14.9248 10.5042C14.8793 10.4965 14.8327 10.5118 14.7895 10.5357C14.766 10.5193 14.7427 10.5029 14.7191 10.4867C14.6584 10.4415 14.5921 10.4029 14.533 10.3561C14.4402 10.2838 14.3505 10.2083 14.2597 10.1339C14.2417 10.1185 14.2391 10.1163 14.2326 10.1108C14.251 10.0968 14.2694 10.0827 14.2877 10.0686C14.864 9.62297 14.6628 9.10755 14.2045 9.10567C14.0387 9.10499 13.8394 9.17152 13.631 9.3328C13.2787 9.60551 12.9062 9.85511 12.5334 10.1034C12.4654 10.1488 12.397 10.1937 12.3283 10.2383V2.05472H21.7585Z" fill="white"/>
</mask>
<g mask="url(#mask5_67_124)">
<path fill-rule="evenodd" clip-rule="evenodd" d="M21.5264 9.45897C21.8359 9.74265 21.8359 10.2026 21.5264 10.4863C21.2169 10.77 20.7152 10.77 20.4057 10.4863L12.5604 3.29482C12.2509 3.01114 12.2509 2.55116 12.5604 2.26748C12.8699 1.9838 13.3717 1.9838 13.6812 2.26748L21.5264 9.45897Z" fill="#438A7E"/>
</g>
<path d="M5.95998 16.4289C5.94839 16.4289 5.939 16.4203 5.939 16.4096C5.939 16.399 5.94839 16.3904 5.95998 16.3904C5.97157 16.3904 5.98096 16.399 5.98096 16.4096C5.98096 16.4203 5.97157 16.4289 5.95998 16.4289Z" fill="white" stroke="black" stroke-width="0.999999"/>
<path d="M13.544 9.69468C13.5324 9.69468 13.523 9.68607 13.523 9.67545C13.523 9.66483 13.5324 9.65622 13.544 9.65622C13.5556 9.65622 13.5649 9.66483 13.5649 9.67545C13.5649 9.68607 13.5556 9.69468 13.544 9.69468Z" fill="white" stroke="black" stroke-width="0.999999"/>
<mask id="mask6_67_124" style="mask-type:luminance" maskUnits="userSpaceOnUse" x="6" y="9" width="8" height="8">
<path d="M13.5263 9.65518V9.97689C13.5015 10.0047 13.483 10.0375 13.4721 10.0743C13.4018 10.0484 13.3357 10.0368 13.2758 10.0371C13.1103 10.0379 12.993 10.1292 12.968 10.2563C12.9261 10.2473 12.8866 10.2431 12.8499 10.2435C12.5107 10.2471 12.4113 10.6285 12.8503 10.9251C12.9059 10.9627 12.9592 11.003 13.0122 11.0436C13.0932 11.1058 13.1721 11.1702 13.253 11.2326C13.3364 11.2979 13.4223 11.3603 13.5137 11.4159C13.5179 11.4184 13.5221 11.4207 13.5264 11.423V16.4061H6.02896V9.65518L13.5263 9.65518Z" fill="white"/>
</mask>
<g mask="url(#mask6_67_124)">
<path fill-rule="evenodd" clip-rule="evenodd" d="M13.5264 9.65518L6.02903 16.4061L13.5264 9.65518Z" fill="white"/>
</g>
<mask id="mask7_67_124" style="mask-type:luminance" maskUnits="userSpaceOnUse" x="4" y="8" width="12" height="11">
<path d="M15.1408 8.11441V10.5767C15.0729 10.5426 14.9998 10.5169 14.9247 10.5042C14.8792 10.4965 14.8326 10.5118 14.7894 10.5357C14.7659 10.5193 14.7426 10.5029 14.719 10.4867C14.6583 10.4415 14.592 10.4029 14.5329 10.3561C14.4401 10.2838 14.3504 10.2083 14.2596 10.1339C14.2018 10.0847 14.2302 10.1092 14.1744 10.0607C14.029 9.93436 13.8854 9.8815 13.7656 9.88071C13.6183 9.87972 13.507 9.95757 13.4724 10.0744C13.402 10.0485 13.3358 10.0368 13.2759 10.0371C13.1104 10.0379 12.9931 10.1292 12.9681 10.2563C12.9262 10.2473 12.8866 10.2431 12.85 10.2435C12.5107 10.2472 12.4114 10.6286 12.8503 10.9251C12.906 10.9627 12.9592 11.003 13.0123 11.0436C13.0932 11.1058 13.1722 11.1702 13.253 11.2326C13.3364 11.2979 13.4224 11.3604 13.5138 11.416C13.6111 11.4726 13.72 11.5038 13.8333 11.5189C13.9321 11.5253 13.9921 11.5189 14.0673 11.4836C14.1279 11.5206 14.1659 11.5465 14.2418 11.5692C14.3697 11.6075 14.4988 11.6015 14.6224 11.5554C14.695 11.5242 14.7645 11.4879 14.8305 11.446C14.8717 11.4215 14.9131 11.3979 14.954 11.373C15.0009 11.3428 15.0471 11.3111 15.0874 11.2736C15.1058 11.2567 15.1238 11.2394 15.1409 11.2213V18.1328H4.06806V8.11441L15.1408 8.11441Z" fill="white"/>
</mask>
<g mask="url(#mask7_67_124)">
<path fill-rule="evenodd" clip-rule="evenodd" d="M11.7792 8.11441L4.87903 14.318L4.49412 14.7119C4.32416 14.9715 4.21862 15.2311 4.17377 15.4907C4.14451 15.6854 4.07936 15.8514 4.07994 16.0102C4.05028 16.7587 4.07402 17.0432 4.1771 17.1713L4.74944 17.7261C4.92104 17.8725 5.55642 18.0951 5.83002 18.1293C6.14871 18.1514 6.32698 18.063 6.80312 17.9874C7.11275 17.948 7.3911 17.8803 7.74764 17.7668C8.01816 17.6483 8.2291 17.5485 8.43971 17.44L15.1409 11.2162L11.7792 8.11441Z" fill="white"/>
</g>
<path fill-rule="evenodd" clip-rule="evenodd" d="M11.1735 14.8853C11.161 14.8756 11.1697 14.8824 11.1576 14.8729C11.1545 14.8705 11.1702 14.8824 11.1669 14.8801C11.1641 14.8782 11.1615 14.876 11.1588 14.8739C11.1513 14.8681 11.1614 14.876 11.144 14.8625C11.1351 14.8556 11.1336 14.8543 11.1247 14.8473C11.1154 14.84 11.1062 14.8326 11.0969 14.8253C11.09 14.8198 11.0831 14.8142 11.0762 14.8087C11.0691 14.8032 11.0608 14.7965 11.0532 14.7905C11.0428 14.7823 11.0324 14.7739 11.022 14.7656C11.0113 14.757 11.0007 14.7484 10.9901 14.7398C10.9797 14.7314 10.9693 14.723 10.9589 14.7146C10.9485 14.706 10.938 14.6975 10.9276 14.689C10.9166 14.6801 10.9056 14.6711 10.8946 14.6621C10.8855 14.6548 10.8764 14.6475 10.8673 14.6403C10.8552 14.6306 10.8431 14.6212 10.831 14.6116C10.8201 14.6029 10.8091 14.5944 10.7981 14.5858C10.7858 14.5763 10.7736 14.5668 10.7613 14.5573C10.7495 14.5482 10.7377 14.539 10.7258 14.5299C10.713 14.5201 10.7002 14.5103 10.6873 14.5006C10.6738 14.4904 10.6603 14.4802 10.6467 14.47C10.6314 14.4584 10.6162 14.4468 10.6009 14.4352C10.5866 14.4244 10.5723 14.4137 10.5581 14.4029C10.5561 14.4014 10.5541 14.3999 10.5521 14.3984C9.51457 13.614 10.7247 12.2689 11.7623 13.0533C11.7651 13.0555 11.768 13.0576 11.7708 13.0598C11.7854 13.0708 11.8 13.0818 11.8145 13.0928C11.8278 13.1029 11.841 13.113 11.8543 13.123C11.8692 13.1342 11.8841 13.1454 11.899 13.1567C11.9139 13.168 11.9288 13.1793 11.9436 13.1907C11.9588 13.2023 11.9738 13.214 11.9889 13.2256C12.0029 13.2364 12.0169 13.2473 12.0309 13.2581C12.0455 13.2695 12.06 13.2809 12.0745 13.2924C12.0872 13.3024 12.1 13.3124 12.1126 13.3225C12.1273 13.3342 12.142 13.3459 12.1566 13.3577C12.168 13.367 12.1793 13.3763 12.1907 13.3856C12.2013 13.3942 12.212 13.4029 12.2226 13.4115C12.2324 13.4196 12.2424 13.4275 12.2523 13.4355C12.2605 13.4422 12.2688 13.4489 12.277 13.4555C12.2838 13.461 12.2907 13.4665 12.2984 13.4726C12.3071 13.4795 12.3157 13.4864 12.3245 13.4933C12.335 13.5017 12.3385 13.5045 12.3487 13.5126C12.3518 13.5151 12.371 13.5303 12.3602 13.5218C12.3826 13.5393 12.3537 13.5168 12.3737 13.5324C12.376 13.5342 12.3939 13.548 12.3852 13.5413C12.3654 13.5262 12.4222 13.5698 12.3937 13.5479C13.4254 14.3389 12.2051 15.6763 11.1735 14.8853Z" fill="#438A7E"/>
<path fill-rule="evenodd" clip-rule="evenodd" d="M8.68357 17.2502C8.6727 17.2348 8.69216 17.2623 8.69261 17.2629C8.68172 17.2487 8.70677 17.2811 8.69135 17.2614C8.68848 17.2577 8.68557 17.2541 8.68268 17.2504C8.68321 17.2509 8.68124 17.2487 8.68159 17.2491C8.69435 17.2649 8.67744 17.2443 8.68499 17.2534C8.68239 17.2505 8.67581 17.2431 8.67274 17.2396C8.66988 17.2365 8.667 17.2334 8.66413 17.2303C8.65651 17.2223 8.64917 17.2141 8.64152 17.2062C8.63509 17.1995 8.62862 17.1928 8.62209 17.1861C8.61381 17.1779 8.60576 17.1694 8.59739 17.1612C8.58768 17.1515 8.5779 17.1419 8.5681 17.1323C8.56029 17.1247 8.55247 17.1171 8.54449 17.1097C8.53435 17.1 8.52404 17.0905 8.5137 17.0811C8.50204 17.0705 8.49029 17.0599 8.47854 17.0494C8.46561 17.0379 8.45259 17.0264 8.43956 17.0149C8.42592 17.0029 8.41228 16.9909 8.39854 16.979C8.38288 16.9655 8.36723 16.9519 8.35159 16.9384C8.33689 16.9256 8.32201 16.913 8.30715 16.9003C8.29024 16.8858 8.27329 16.8713 8.25626 16.8569C8.23771 16.8412 8.21922 16.8255 8.20071 16.8097C8.18256 16.7943 8.16438 16.7789 8.14619 16.7636C8.1272 16.7476 8.10821 16.7316 8.08924 16.7156C8.07098 16.7002 8.05256 16.685 8.03423 16.6696C8.01568 16.6541 7.99718 16.6386 7.97859 16.6231C7.95839 16.6063 7.93816 16.5895 7.918 16.5726C7.90024 16.5577 7.88236 16.5429 7.86443 16.5281C7.84331 16.5107 7.82221 16.4933 7.80116 16.4759C6.80398 15.6487 8.0802 14.3559 9.07739 15.1832C9.09659 15.1991 9.11586 15.215 9.13513 15.2308C9.15701 15.2488 9.17884 15.2669 9.20052 15.2851C9.21915 15.3007 9.23783 15.3162 9.2565 15.3318C9.27672 15.3486 9.29688 15.3655 9.31705 15.3824C9.33717 15.3992 9.3574 15.416 9.37742 15.4329C9.39668 15.4492 9.416 15.4654 9.43528 15.4816C9.45466 15.498 9.47403 15.5144 9.49336 15.5308C9.51124 15.546 9.52909 15.5612 9.54701 15.5763C9.56506 15.5916 9.58306 15.607 9.60099 15.6224C9.6198 15.6384 9.6386 15.6544 9.65722 15.6706C9.67356 15.6847 9.68992 15.6989 9.70626 15.713C9.72335 15.7278 9.74035 15.7428 9.75732 15.7577C9.7742 15.7726 9.79104 15.7874 9.80778 15.8024C9.8247 15.8176 9.84164 15.8327 9.85839 15.848C9.87475 15.863 9.89103 15.8781 9.90712 15.8933C9.92399 15.9092 9.94073 15.9253 9.95728 15.9415C9.97063 15.9546 9.98396 15.9677 9.9972 15.9809C10.0105 15.9941 10.0236 16.0074 10.0368 16.0208C10.0503 16.0346 10.0637 16.0484 10.077 16.0624C10.0878 16.0739 10.0986 16.0854 10.1094 16.0969C10.1233 16.1118 10.137 16.1268 10.1505 16.142C10.1606 16.1535 10.171 16.165 10.181 16.1767C10.1938 16.1918 10.2066 16.2069 10.2188 16.2224C10.2257 16.2311 10.2326 16.2398 10.2394 16.2485C10.2457 16.2566 10.2546 16.268 10.2618 16.2777C10.2707 16.2898 10.2803 16.3027 10.2882 16.3143C11.0102 17.3543 9.40562 18.2903 8.68357 17.2502Z" fill="#438A7E"/>
<path fill-rule="evenodd" clip-rule="evenodd" d="M13.2345 10.1426C13.2609 10.0754 13.3171 10.0173 13.3487 9.95343C13.3544 9.94193 13.3584 9.91886 13.3507 9.9059C13.3489 9.90297 13.3443 9.90274 13.341 9.90117C13.3368 9.89501 13.3332 9.88841 13.3283 9.88267C13.3238 9.87746 13.318 9.87338 13.3131 9.8685C13.2862 9.84168 13.2597 9.81458 13.2332 9.78748C13.1871 9.74045 13.1416 9.69293 13.0957 9.64573C13.0248 9.57492 12.9485 9.50895 12.8772 9.43848C12.8448 9.41491 12.815 9.38817 12.7834 9.3637C12.7717 9.35469 12.7582 9.34783 12.7459 9.33955C12.6749 9.28912 12.6005 9.24367 12.5305 9.19198C12.4574 9.12898 12.3738 9.078 12.2973 9.01891C12.2579 8.99312 12.2286 8.96169 12.1966 8.92787C12.1456 8.86994 12.0955 8.81125 12.0492 8.74997C12.014 8.70379 11.9733 8.66195 11.9388 8.61512C11.9338 8.60811 11.9291 8.60087 11.9237 8.59407C11.9232 8.59341 11.9227 8.59595 11.9219 8.59555C11.9097 8.58725 11.8985 8.57662 11.8872 8.56735C11.9472 8.60279 11.8415 8.55398 11.8675 8.56653C11.8529 8.56118 11.8383 8.55582 11.8237 8.55047C11.8201 8.54898 11.8097 8.54407 11.813 8.54602C11.8211 8.55081 11.8494 8.55803 11.8402 8.55529C11.7802 8.53747 11.8038 8.54613 11.7738 8.53465C11.7769 8.5358 11.78 8.53708 11.7831 8.5383C11.4621 8.44655 11.6037 8.03044 11.9247 8.1222C11.9355 8.12561 11.9462 8.12902 11.957 8.13243C11.96 8.13358 11.969 8.13645 11.9659 8.13584C11.9547 8.13368 11.9215 8.1261 11.9328 8.12775C11.9616 8.13196 11.9821 8.1392 12.0088 8.14881C12.0131 8.15029 12.0261 8.15397 12.0214 8.15405C12.0152 8.15414 12.0096 8.15062 12.0037 8.14889C12.0755 8.1706 12.1445 8.19932 12.2044 8.2426C12.2533 8.28276 12.3027 8.32331 12.3362 8.37598C12.3655 8.42173 12.4134 8.45601 12.441 8.50307C12.4787 8.55385 12.5203 8.60227 12.5625 8.64967C12.5684 8.65626 12.5744 8.66273 12.5802 8.66943C12.5814 8.67075 12.5776 8.66683 12.5762 8.66564C12.5698 8.66015 12.5487 8.64592 12.5566 8.64943C12.588 8.66335 12.5682 8.67532 12.6053 8.68689C12.6778 8.74443 12.76 8.79129 12.8291 8.8528C12.8473 8.86632 12.8646 8.881 12.8836 8.8935C12.9318 8.92506 12.9828 8.95326 13.0279 8.98865C13.0976 9.03578 13.1634 9.08779 13.2262 9.14247C13.2993 9.21508 13.3787 9.2822 13.4507 9.35579C13.4956 9.40203 13.5403 9.44851 13.5853 9.49469C13.6556 9.56684 13.7278 9.63651 13.772 9.7261C13.788 9.75875 13.7971 9.79394 13.8097 9.82786C13.8143 9.8686 13.8246 9.90912 13.8237 9.95008C13.8218 10.0332 13.7973 10.0976 13.7601 10.1719C13.7352 10.2217 13.6943 10.2635 13.6715 10.3143C13.539 10.5976 13.102 10.4259 13.2345 10.1426Z" fill="white"/>
<path fill-rule="evenodd" clip-rule="evenodd" d="M13.162 10.8758C13.2036 10.9302 13.2522 10.9802 13.3015 11.0288C13.315 11.0251 13.3171 11.0514 13.33 11.0534C13.3329 11.0539 13.3223 11.046 13.3251 11.0467C13.3382 11.0498 13.3501 11.0562 13.3625 11.0611C13.4305 11.0914 13.4957 11.1281 13.5663 11.1533C13.6079 11.17 13.6531 11.1744 13.6973 11.1833C13.7518 11.1895 13.806 11.1983 13.8605 11.204C13.9191 11.2069 13.9776 11.2059 14.0362 11.21C14.0852 11.2174 14.1347 11.22 14.1843 11.2206C14.2259 11.2205 14.2674 11.2199 14.3089 11.2198C14.3362 11.2197 14.3634 11.2197 14.3906 11.2197C14.396 11.2197 14.4121 11.2192 14.4068 11.2197C14.3967 11.2207 14.3866 11.2205 14.3766 11.221C14.3697 11.2179 14.3369 11.2356 14.3709 11.2199C14.3736 11.2185 14.3597 11.2242 14.3622 11.2226C14.3702 11.2175 14.3786 11.2129 14.3868 11.2081C14.4121 11.1892 14.4546 11.1746 14.4776 11.1597C14.5091 11.1364 14.5088 11.1368 14.565 11.1039C14.5694 11.1013 14.5556 11.1086 14.5509 11.1109C14.5956 11.0861 14.5611 11.1039 14.6245 11.0772C14.6337 11.0734 14.6065 11.0864 14.5966 11.0882C14.5895 11.0895 14.6092 11.0815 14.6159 11.0788C14.6294 11.0732 14.6432 11.068 14.6571 11.0632C14.6675 11.0597 14.6367 11.0712 14.6265 11.0751C14.6324 11.0722 14.6495 11.0627 14.6442 11.0663C14.546 11.1335 14.6318 11.0696 14.6292 11.0725C14.6221 11.0803 14.5999 11.1017 14.6041 11.0923C14.6064 11.0874 14.637 11.064 14.6459 11.057C14.624 11.058 14.6264 11.0981 14.6066 11.0978C14.5952 11.0976 14.619 11.0801 14.625 11.0712C14.6261 11.0694 14.6221 11.0743 14.6211 11.0761C14.6155 11.0861 14.6136 11.0984 14.6052 11.1066C14.5992 11.1125 14.6107 11.0913 14.6134 11.0836C14.6183 11.0591 14.6265 11.0348 14.6316 11.01C14.6249 11.0193 14.6291 11.0148 14.6298 10.9924C14.6442 10.6844 15.1193 10.7031 15.1049 11.011C15.1017 11.0711 15.1045 11.039 15.0951 11.1072C15.092 11.1193 15.0919 11.1327 15.0852 11.1436C15.0838 11.1458 15.0864 11.1333 15.0859 11.1359C15.0799 11.1645 15.0757 11.1936 15.0645 11.2211C15.0348 11.2991 15.0152 11.3318 14.9525 11.3901C14.9507 11.3914 14.9459 11.3958 14.9472 11.3941C14.9502 11.3904 14.961 11.381 14.9573 11.3841C14.9204 11.415 14.9139 11.4293 14.8655 11.4519C14.7046 11.5235 14.9416 11.4208 14.7872 11.4868C14.7762 11.4915 14.8155 11.4752 14.819 11.4708C14.8078 11.4772 14.7974 11.485 14.7853 11.4901C14.7769 11.4936 14.815 11.4699 14.8078 11.4752C14.7836 11.4928 14.7628 11.5086 14.7375 11.5246C14.7026 11.5445 14.6717 11.5577 14.6405 11.5767C14.6216 11.5868 14.636 11.5789 14.598 11.6018C14.5577 11.6236 14.5129 11.6395 14.4673 11.6488C14.415 11.6546 14.3636 11.6575 14.311 11.6556C14.2663 11.6558 14.2216 11.6565 14.1769 11.6565C14.1134 11.6555 14.0498 11.6527 13.9869 11.6436C13.9278 11.6412 13.8619 11.6431 13.8006 11.6365C13.7312 11.628 13.6618 11.6194 13.5927 11.6086C13.5224 11.5932 13.4497 11.5847 13.3835 11.5558C13.3128 11.5281 13.2429 11.4977 13.1765 11.4623C13.0926 11.4295 13.0124 11.391 12.9529 11.3253C12.8791 11.2523 12.8066 11.1768 12.7491 11.0922C12.5823 10.8246 12.9952 10.6083 13.162 10.8758Z" fill="white"/>
</g>
<path fill-rule="evenodd" clip-rule="evenodd" d="M9.87753 16.5215C9.71288 16.3866 9.54988 16.2499 9.38831 16.1119C9.29013 16.0299 9.19378 15.9455 9.09204 15.8671C9.038 15.8255 8.97789 15.7883 8.92221 15.7486C8.78292 15.6517 8.64458 15.5545 8.5159 15.4457C8.41802 15.359 8.32604 15.2671 8.24325 15.168C8.2579 15.1847 8.27255 15.2013 8.2872 15.218C7.36871 14.3174 8.75806 13.1268 9.67654 14.0273C9.70428 14.0568 9.73202 14.0863 9.75975 14.1158C9.76137 14.1179 9.76656 14.1239 9.76457 14.1221C9.75553 14.1139 9.72984 14.0882 9.73857 14.0966C9.76607 14.1232 9.79287 14.1504 9.82037 14.1769C9.84837 14.2057 9.86215 14.2111 9.90656 14.2425C9.9685 14.2863 10.0309 14.3295 10.0923 14.3741C10.1788 14.4363 10.2673 14.4958 10.3515 14.5607C10.4667 14.6494 10.5755 14.745 10.6866 14.8378C10.8636 14.9898 11.0448 15.1373 11.2224 15.2887C12.1734 16.1604 10.8285 17.3933 9.87753 16.5215Z" fill="#438A7E"/>
<path fill-rule="evenodd" clip-rule="evenodd" d="M12.833 13.9409C12.6035 13.8226 12.3894 13.6839 12.1835 13.5339C11.9561 13.3647 11.742 13.1814 11.5255 13.0008C11.4107 12.9043 11.2975 12.8063 11.1831 12.7095C11.0794 12.6198 10.976 12.5297 10.8734 12.4389C9.91003 11.5787 11.2372 10.3298 12.2006 11.19C12.2893 11.2713 12.383 11.3481 12.473 11.4283C12.5842 11.5224 12.694 11.6177 12.8057 11.7114C12.9935 11.868 13.1786 12.0275 13.3751 12.175C13.441 12.2247 13.5078 12.2741 13.5793 12.3169C13.6647 12.3681 13.7554 12.4115 13.841 12.4625C14.9815 13.1159 13.9734 14.5943 12.833 13.9409Z" fill="#438A7E"/>
</svg>
