<svg width="319" height="267" viewBox="0 0 319 267" fill="none" xmlns="http://www.w3.org/2000/svg">
<path d="M305.04 180.762C274.182 240.815 191.984 274.457 120.701 265.382C109.102 263.906 77.3033 259.507 49.1495 238.755C-5.04841 198.807 -16.639 119.704 27.0807 63.9581C58.9011 23.3849 115.942 0.385321 170.143 1.53583C181.817 1.78363 226.56 3.31085 265.881 30.1092C271.656 34.0453 284.395 43.3987 295.875 58.2371C322.833 93.0807 325.15 141.625 305.04 180.762Z" fill="url(#paint0_linear_212_193)"/>
<g opacity="0.3">
<path d="M196.66 40.727C196.03 40.7058 195.54 40.2663 195.566 39.7459C195.616 38.7347 195.614 37.7066 195.559 36.6902C195.532 36.176 196.008 35.7398 196.627 35.7073C196.634 35.7069 196.641 35.7065 196.649 35.7062C197.279 35.683 197.812 36.0863 197.839 36.6068C197.897 37.6767 197.899 38.7589 197.846 39.8235C197.822 40.3102 197.356 40.6957 196.78 40.7259C196.74 40.7279 196.7 40.7285 196.66 40.727ZM194.883 31.7582C194.662 30.7579 194.386 29.7561 194.064 28.7794C193.899 28.2772 194.257 27.7585 194.865 27.6214C195.476 27.4856 196.101 27.7811 196.266 28.2836C196.605 29.311 196.895 30.3656 197.129 31.418C197.242 31.9303 196.831 32.4219 196.211 32.5157C196.166 32.5225 196.121 32.5271 196.077 32.5294C195.508 32.5594 194.989 32.2333 194.883 31.7582ZM192.087 24.0954C191.603 23.1636 191.064 22.2379 190.484 21.3435C190.187 20.8843 190.396 20.3126 190.952 20.0667C191.507 19.8216 192.199 19.994 192.496 20.4531C193.107 21.3949 193.674 22.37 194.184 23.3511C194.432 23.8298 194.164 24.3844 193.585 24.5901C193.462 24.6338 193.334 24.6582 193.208 24.6649C192.74 24.6895 192.282 24.472 192.087 24.0954ZM187.287 17.1421C186.562 16.3222 185.786 15.519 184.98 14.7543C184.566 14.3615 184.616 13.7656 185.091 13.4235C185.566 13.0819 186.287 13.123 186.701 13.5151C187.55 14.3204 188.367 15.1662 189.13 16.0288C189.502 16.4493 189.391 17.0395 188.882 17.3468C188.7 17.4567 188.491 17.5157 188.282 17.5267C187.906 17.5464 187.526 17.412 187.287 17.1421ZM180.733 11.2459C179.808 10.5812 178.836 9.93965 177.843 9.33976C177.334 9.03199 177.223 8.44193 177.595 8.02148C177.967 7.60064 178.681 7.50925 179.19 7.81712C180.234 8.44823 181.257 9.12328 182.23 9.82277C182.706 10.1644 182.756 10.7602 182.342 11.1533C182.134 11.3514 181.848 11.4602 181.554 11.4756C181.265 11.4908 180.969 11.4155 180.733 11.2459ZM172.763 6.69536C171.682 6.21531 170.563 5.76793 169.435 5.36523C168.857 5.15858 168.591 4.60329 168.841 4.12534C169.091 3.64702 169.762 3.4269 170.341 3.63355C171.527 4.05716 172.705 4.52842 173.843 5.03349C174.399 5.28015 174.607 5.85177 174.309 6.31081C174.115 6.60894 173.755 6.78579 173.375 6.80575C173.169 6.81654 172.958 6.78187 172.763 6.69536ZM130.39 6.25618C130.093 5.79667 130.304 5.22523 130.86 4.9801C131.999 4.47809 133.181 4.01037 134.371 3.5902C134.951 3.38556 135.621 3.60806 135.868 4.08715C136.116 4.56585 135.847 5.1201 135.267 5.32474C134.137 5.72371 133.016 6.16795 131.934 6.64475C131.785 6.71016 131.627 6.74568 131.47 6.75399C131.037 6.77672 130.607 6.59327 130.39 6.25618ZM163.777 3.71978C162.594 3.45068 161.383 3.22073 160.177 3.03662C159.557 2.9418 159.148 2.44972 159.262 1.93759C159.377 1.42508 159.972 1.08932 160.592 1.18157C161.862 1.37561 163.138 1.61769 164.383 1.90121C164.99 2.03948 165.347 2.55868 165.18 3.06107C165.048 3.45937 164.625 3.72742 164.152 3.75216C164.029 3.75865 163.903 3.74824 163.777 3.71978ZM139.54 3.03471C139.376 2.53204 139.736 2.01398 140.344 1.878C141.59 1.59964 142.868 1.36205 144.14 1.17126C144.76 1.07595 145.354 1.41877 145.467 1.93119C145.579 2.44361 145.167 2.93444 144.547 3.02755C143.338 3.2088 142.124 3.43454 140.94 3.69925C140.864 3.71615 140.788 3.72599 140.713 3.73C140.183 3.75779 139.684 3.47494 139.54 3.03471ZM154.213 2.47904C152.989 2.43549 151.745 2.43501 150.518 2.47799C149.888 2.50033 149.356 2.0963 149.329 1.57567C149.303 1.06201 149.779 0.626942 150.397 0.594474C150.405 0.594092 150.413 0.593614 150.421 0.593614C151.713 0.547969 153.022 0.54835 154.311 0.593996C154.941 0.616724 155.43 1.05657 155.403 1.5771C155.377 2.06316 154.911 2.44752 154.336 2.4777C154.296 2.4799 154.255 2.48018 154.213 2.47904Z" fill="#0B2D39" fill-opacity="0.58"/>
<path d="M124.769 10.3862C124.994 10.3744 125.216 10.3081 125.406 10.1837C125.866 9.88118 126.342 9.58191 126.82 9.29323C127.33 8.98631 127.441 8.39607 127.07 7.97552C126.698 7.55458 125.984 7.46176 125.475 7.76972C124.972 8.07301 124.472 8.38795 123.986 8.70614C123.493 9.02995 123.41 9.62344 123.802 10.0312C124.044 10.2828 124.409 10.4051 124.769 10.3862Z" fill="#0B2D39" fill-opacity="0.58"/>
</g>
<g opacity="0.3">
<path d="M108.133 35.6414C108.682 35.6126 109.141 35.2577 109.195 34.7901C109.251 34.3061 109.321 33.8148 109.401 33.3303C109.487 32.8142 109.051 32.3382 108.426 32.2673C107.799 32.196 107.226 32.5573 107.14 33.0731C107.055 33.5833 106.982 34.1006 106.923 34.6103C106.863 35.1288 107.323 35.5894 107.95 35.6391C108.012 35.644 108.073 35.6446 108.133 35.6414Z" fill="#0B2D39" fill-opacity="0.58"/>
<path d="M152.898 75.9071C152.268 75.9146 151.749 75.4984 151.74 74.9772C151.731 74.4564 152.234 74.0292 152.865 74.0208C154.065 74.0065 155.283 73.9497 156.498 73.8519C157.122 73.8 157.683 74.1811 157.744 74.6995C157.806 75.218 157.346 75.6791 156.719 75.7298C156.192 75.7722 155.667 75.8072 155.143 75.8347C154.395 75.8738 153.64 75.8984 152.898 75.9071ZM161.48 74.1857C161.335 73.6791 161.714 73.1708 162.328 73.0507C163.505 72.8199 164.683 72.5458 165.83 72.2354C166.427 72.0719 167.073 72.343 167.269 72.838C167.465 73.3327 167.139 73.8656 166.54 74.0277C165.333 74.3546 164.093 74.6434 162.854 74.8859C162.79 74.8985 162.725 74.9064 162.662 74.9097C162.117 74.9383 161.611 74.6396 161.48 74.1857ZM146.688 75.6288C145.428 75.5004 144.158 75.3256 142.911 75.1089C142.295 75.0017 141.9 74.5016 142.029 73.9916C142.159 73.4819 142.764 73.1563 143.381 73.2628C144.564 73.4687 145.771 73.6347 146.968 73.7564C147.593 73.8203 148.038 74.291 147.961 74.8082C147.892 75.2655 147.438 75.6057 146.902 75.6339C146.832 75.6375 146.76 75.6361 146.688 75.6288ZM170.779 71.6615C170.502 71.1935 170.737 70.6286 171.304 70.4002C172.389 69.9622 173.465 69.4805 174.502 68.9688C175.043 68.7012 175.743 68.8471 176.066 69.2946C176.39 69.7417 176.213 70.3206 175.672 70.5878C174.581 71.1268 173.448 71.6341 172.305 72.0953C172.167 72.1509 172.022 72.1819 171.877 72.1894C171.429 72.2129 170.988 72.0153 170.779 71.6615ZM136.933 73.7089C135.739 73.3547 134.546 72.9533 133.388 72.5156C132.815 72.2991 132.562 71.7397 132.824 71.266C133.086 70.7919 133.763 70.5836 134.337 70.8001C135.437 71.2157 136.569 71.597 137.704 71.9332C138.297 72.1092 138.605 72.6494 138.392 73.1397C138.234 73.505 137.831 73.7396 137.39 73.7627C137.239 73.7707 137.084 73.7537 136.933 73.7089ZM127.923 70.0672C126.849 69.5044 125.791 68.8977 124.778 68.2638C124.276 67.949 124.177 67.3576 124.558 66.9422C124.939 66.5265 125.655 66.445 126.157 66.7601C127.119 67.3624 128.124 67.939 129.145 68.4739C129.677 68.7528 129.835 69.3356 129.498 69.7756C129.295 70.0406 128.958 70.1934 128.606 70.2119C128.373 70.2241 128.135 70.1778 127.923 70.0672ZM120.088 64.8889C119.187 64.1458 118.314 63.3629 117.493 62.5623C117.085 62.1647 117.145 61.5698 117.626 61.233C118.107 60.8958 118.827 60.9455 119.234 61.3428C120.014 62.1037 120.844 62.8473 121.7 63.5536C122.146 63.9215 122.147 64.5188 121.702 64.8873C121.497 65.0568 121.234 65.1484 120.967 65.1625C120.651 65.179 120.329 65.0878 120.088 64.8889ZM113.805 58.4214C113.123 57.5335 112.478 56.6112 111.89 55.6799C111.598 55.2183 111.814 54.6484 112.373 54.4072C112.931 54.1664 113.621 54.345 113.913 54.8067C114.472 55.6907 115.084 56.5664 115.732 57.4099C116.07 57.8495 115.913 58.4322 115.381 58.7116C115.213 58.7998 115.028 58.8472 114.842 58.8568C114.44 58.878 114.037 58.7222 113.805 58.4214ZM109.394 50.967C108.966 49.9791 108.583 48.9628 108.257 47.9463C108.095 47.4428 108.458 46.9261 109.067 46.7926C109.675 46.6595 110.301 46.9586 110.463 47.4621C110.773 48.4279 111.136 49.393 111.543 50.3315C111.755 50.8217 111.446 51.3618 110.853 51.5372C110.75 51.5678 110.645 51.5855 110.54 51.591C110.046 51.617 109.569 51.372 109.394 50.967ZM107.073 42.9024C106.957 42.1351 106.868 41.3553 106.809 40.585C106.787 40.306 106.77 40.0278 106.756 39.7497C106.73 39.2295 107.21 38.7801 107.848 38.7684C108.478 38.7465 109.01 39.1509 109.036 39.6715C109.05 39.9356 109.066 40.2005 109.086 40.4655C109.143 41.198 109.227 41.9389 109.337 42.6686C109.416 43.1854 108.972 43.6567 108.347 43.7214C108.323 43.7237 108.3 43.7257 108.276 43.7269C107.679 43.7582 107.148 43.3999 107.073 42.9024Z" fill="#0B2D39" fill-opacity="0.58"/>
<path d="M180.162 67.8443C180.389 67.8324 180.613 67.7649 180.803 67.639C181.285 67.3194 181.768 66.9855 182.238 66.6463C182.713 66.3039 182.763 65.7081 182.348 65.3156C181.934 64.9231 181.214 64.8819 180.738 65.2247C180.291 65.5468 179.833 65.864 179.375 66.1674C178.884 66.4929 178.805 67.0866 179.199 67.4931C179.441 67.7422 179.804 67.863 180.162 67.8443Z" fill="#0B2D39" fill-opacity="0.58"/>
</g>
<path d="M182.318 51.7728C182.45 51.6197 182.451 51.4143 182.319 51.2609L178.56 46.887C179.715 44.5704 180.431 42.085 180.637 39.5121L186.341 36.9584C186.541 36.8688 186.65 36.6842 186.613 36.4986L185.339 30.1498C185.302 29.9643 185.126 29.8186 184.902 29.7873L178.506 28.8922C177.307 26.5116 175.658 24.3503 173.66 22.4662L175.51 17.3235C175.574 17.1432 175.494 16.9487 175.309 16.8393L168.976 13.0944C168.791 12.985 168.542 12.9846 168.357 13.0936L163.065 16.2008C160.262 15.2459 157.255 14.6535 154.142 14.4841L151.052 9.76945C150.944 9.60405 150.721 9.51372 150.496 9.54456L142.815 10.5974C142.59 10.6282 142.414 10.7733 142.376 10.9587L141.293 16.2454C138.413 17.2363 135.798 18.5992 133.518 20.2508L127.296 18.7217C127.078 18.6681 126.843 18.7347 126.71 18.8877L122.179 24.1215C122.047 24.2744 122.047 24.48 122.178 24.6333L125.938 29.0073C124.782 31.3237 124.066 33.8091 123.861 36.3821L118.157 38.9358C117.957 39.0253 117.847 39.21 117.884 39.3955L119.158 45.7445C119.196 45.93 119.371 46.0756 119.595 46.107L125.992 47.0021C127.191 49.3827 128.84 51.5439 130.838 53.4282L128.988 58.5709C128.923 58.7511 129.004 58.9455 129.189 59.055L135.521 62.7999C135.706 62.9093 135.955 62.9096 136.14 62.8008L141.432 59.6934C144.235 60.6483 147.242 61.2407 150.355 61.4102L153.445 66.1249C153.554 66.2901 153.777 66.3805 154.001 66.3498L161.683 65.2969C161.907 65.266 162.083 65.121 162.121 64.9355L163.204 59.6489C166.085 58.658 168.699 57.295 170.979 55.6435L177.201 57.1727C177.419 57.2263 177.655 57.1596 177.787 57.0066L182.318 51.7728Z" fill="#0B2D39" fill-opacity="0.58"/>
<path d="M151.6 44.3938C147.3 44.0982 144.091 40.9662 144.449 37.4111C144.622 35.689 145.596 34.1258 147.192 33.0095C148.787 31.8932 150.813 31.3568 152.897 31.5004C157.198 31.7961 160.406 34.9281 160.049 38.4832C159.723 41.7172 156.557 44.2035 152.75 44.4033C152.372 44.4231 151.988 44.4204 151.6 44.3938ZM148.372 34.1614C147.148 35.0175 146.401 36.2159 146.268 37.5364C145.994 40.2615 148.454 42.6635 151.752 42.89C155.05 43.1176 157.955 41.0835 158.229 38.3579C158.503 35.6327 156.043 33.2307 152.746 33.0042C152.447 32.9837 152.15 32.9816 151.856 32.997C150.579 33.064 149.366 33.4659 148.372 34.1614Z" fill="#BDD0FB"/>
<path d="M153.306 53.7364C153.96 53.7021 154.616 53.6404 155.271 53.5507C155.477 53.5225 155.683 53.4914 155.888 53.4577C156.899 53.2914 157.893 53.0588 158.853 52.7636C158.866 52.7596 158.88 52.7556 158.893 52.7516C158.93 52.74 158.967 52.7285 159.004 52.7165C159.076 52.6939 159.148 52.6706 159.22 52.6473C159.408 52.5857 159.52 52.4319 159.508 52.273C159.505 52.2344 159.494 52.1954 159.476 52.1576C159.384 51.9638 159.118 51.8696 158.884 51.9457C157.678 52.3402 156.412 52.6295 155.122 52.8061C148.713 53.6854 142.518 51.689 138.469 47.9631C136.217 45.891 134.629 43.2835 134.038 40.3374C133.934 39.8208 133.862 39.3037 133.823 38.7881C133.557 35.3187 134.733 31.9075 137.214 29.0421C140.063 25.7506 144.293 23.5732 149.123 22.9111C159.1 21.5445 168.554 27.138 170.207 35.3797C170.31 35.8878 170.38 36.3984 170.419 36.9091C170.588 39.1223 170.17 41.3415 169.185 43.4063C169.159 43.4597 169.149 43.5149 169.154 43.5685C169.165 43.7098 169.272 43.8403 169.442 43.8956C169.677 43.9715 169.942 43.8776 170.034 43.6829C171.069 41.5152 171.508 39.1851 171.33 36.8617C171.289 36.3256 171.215 35.7897 171.108 35.2563C169.372 26.6032 159.44 20.7321 148.974 22.1664C143.903 22.8615 139.463 25.1473 136.472 28.6027C133.867 31.6108 132.633 35.1919 132.912 38.8343C132.953 39.3755 133.028 39.9183 133.137 40.4604C133.978 44.6522 136.744 48.3221 140.924 50.7943C144.564 52.9476 148.898 53.9677 153.306 53.7364Z" fill="#BDD0FB"/>
<g opacity="0.3">
<path d="M237.549 63.4933C237.854 63.4773 238.121 63.2985 238.192 63.04C238.324 62.5577 238.44 62.0653 238.536 61.5769C238.599 61.2595 238.339 60.9602 237.955 60.908C237.57 60.8547 237.208 61.0714 237.145 61.3888C237.053 61.8542 236.943 62.3235 236.817 62.7838C236.731 63.0973 236.969 63.4091 237.349 63.4805C237.416 63.4928 237.484 63.4967 237.549 63.4933Z" fill="#0B2D39" fill-opacity="0.58"/>
<path d="M238.181 59.0506C237.792 59.038 237.489 58.7676 237.504 58.4459C237.541 57.6345 237.529 56.8121 237.466 56.0018C237.453 55.831 237.438 55.6596 237.42 55.4878C237.388 55.1675 237.675 54.8855 238.063 54.8584C238.431 54.8448 238.792 55.0694 238.825 55.3902C238.843 55.5699 238.859 55.7493 238.873 55.9281C238.938 56.7774 238.951 57.6398 238.912 58.4907C238.898 58.7918 238.61 59.031 238.253 59.0497C238.229 59.0508 238.205 59.0509 238.181 59.0506ZM236.902 52.5605C236.658 51.5969 236.339 50.6371 235.955 49.7082C235.83 49.4035 236.026 49.0728 236.394 48.9686C236.761 48.8655 237.163 49.0268 237.289 49.3314C237.692 50.305 238.026 51.3113 238.281 52.3217C238.361 52.6368 238.117 52.9454 237.736 53.0116C237.702 53.0173 237.668 53.0207 237.635 53.0225C237.291 53.0406 236.974 52.8475 236.902 52.5605ZM234.589 46.9735C234.067 46.09 233.473 45.2245 232.823 44.4001C232.61 44.1308 232.702 43.7697 233.028 43.5941C233.355 43.4179 233.791 43.4936 234.004 43.7636C234.686 44.6278 235.309 45.5362 235.856 46.4624C236.026 46.7516 235.881 47.1007 235.531 47.2416C235.446 47.2757 235.356 47.2947 235.267 47.2993C234.991 47.3139 234.718 47.1919 234.589 46.9735ZM230.686 42.0269C229.917 41.2749 229.084 40.5553 228.212 39.8896C227.926 39.6709 227.908 39.3024 228.173 39.0663C228.436 38.8307 228.882 38.8153 229.168 39.0334C230.083 39.7322 230.956 40.4862 231.762 41.2749C232.014 41.5206 231.976 41.8885 231.679 42.0962C231.559 42.1795 231.415 42.2246 231.269 42.2323C231.054 42.2435 230.836 42.1735 230.686 42.0269ZM225.439 38.0178C224.473 37.4431 223.455 36.9128 222.412 36.4408C222.071 36.2866 221.946 35.9323 222.133 35.65C222.32 35.3677 222.748 35.2637 223.089 35.4191C224.182 35.9136 225.25 36.4698 226.263 37.0716C226.578 37.2597 226.651 37.6236 226.423 37.8846C226.295 38.0322 226.099 38.1155 225.895 38.1262C225.738 38.1343 225.577 38.0994 225.439 38.0178ZM219.175 35.1827C218.069 34.82 216.926 34.5111 215.777 34.2648C215.4 34.1842 215.174 33.866 215.272 33.5548C215.369 33.2436 215.753 33.057 216.131 33.1369C217.336 33.3952 218.536 33.7193 219.695 34.0998C220.057 34.2188 220.234 34.5572 220.09 34.856C219.986 35.0724 219.743 35.2088 219.479 35.2227C219.379 35.2278 219.275 35.2156 219.175 35.1827ZM212.265 33.7005C211.089 33.5735 209.888 33.506 208.695 33.5002C208.306 33.4978 207.992 33.2355 207.995 32.9138C207.997 32.5923 208.314 32.3379 208.704 32.3345C209.955 32.3413 211.214 32.412 212.447 32.5451C212.833 32.587 213.105 32.8794 213.055 33.1984C213.011 33.479 212.731 33.6869 212.401 33.7041C212.357 33.7065 212.311 33.7056 212.265 33.7005ZM200.746 33.7599C200.654 33.4473 200.885 33.1324 201.264 33.0561C202.311 32.845 203.39 32.6779 204.468 32.5591C204.631 32.5403 204.794 32.5237 204.958 32.5077C205.341 32.4614 205.695 32.6994 205.739 33.0196C205.784 33.3393 205.507 33.628 205.12 33.6655C204.967 33.6798 204.813 33.6959 204.657 33.7138C203.625 33.8271 202.596 33.9866 201.598 34.1878C201.556 34.1962 201.515 34.2013 201.475 34.2034C201.14 34.2209 200.828 34.0384 200.746 33.7599Z" fill="#0B2D39" fill-opacity="0.58"/>
</g>
<g opacity="0.3">
<path d="M209.995 82.6283C208.769 82.6795 207.527 82.6688 206.306 82.5979C205.918 82.575 205.625 82.2967 205.653 81.9754C205.68 81.6542 206.02 81.4158 206.406 81.4354C207.57 81.5037 208.754 81.5135 209.925 81.4646C210.313 81.4481 210.644 81.6958 210.664 82.0169C210.683 82.3356 210.389 82.6076 210.005 82.6278C210.005 82.6278 209.998 82.6282 209.995 82.6283ZM212.851 81.8162C212.785 81.4993 213.042 81.1978 213.426 81.1435C214.58 80.9793 215.733 80.7557 216.854 80.4786C217.225 80.3879 217.62 80.5616 217.731 80.8704C217.843 81.1786 217.631 81.5027 217.258 81.5952C216.083 81.8854 214.874 82.1198 213.665 82.2916C213.639 82.2953 213.614 82.2977 213.589 82.2991C213.234 82.3176 212.912 82.1128 212.851 81.8162ZM202.646 82.1965C201.44 82.0009 200.238 81.7431 199.073 81.4296C198.703 81.3299 198.501 81.0007 198.622 80.6952C198.742 80.389 199.138 80.2229 199.51 80.3213C200.62 80.6205 201.767 80.8665 202.917 81.0535C203.299 81.1155 203.548 81.4217 203.473 81.7368C203.41 82.0024 203.138 82.1899 202.826 82.2063C202.767 82.2095 202.707 82.2064 202.646 82.1965ZM219.796 80.2433C219.64 79.9488 219.803 79.6051 220.159 79.4758C221.231 79.0871 222.285 78.6403 223.291 78.1469C223.626 77.9834 224.058 78.0747 224.257 78.3504C224.455 78.6274 224.345 78.9848 224.01 79.1488C222.955 79.6665 221.85 80.1355 220.725 80.5428C220.647 80.5707 220.566 80.5864 220.487 80.5906C220.2 80.6058 219.919 80.4734 219.796 80.2433ZM195.643 80.31C194.531 79.8815 193.44 79.3921 192.399 78.8556C192.069 78.6854 191.968 78.3258 192.174 78.0529C192.38 77.7797 192.814 77.696 193.145 77.8667C194.138 78.379 195.179 78.8455 196.239 79.2538C196.591 79.3898 196.744 79.7363 196.579 80.0282C196.467 80.228 196.234 80.3502 195.985 80.3632C195.871 80.3693 195.753 80.3526 195.643 80.31ZM189.39 77.0895C188.434 76.4522 187.516 75.761 186.661 75.0357C186.39 74.8054 186.396 74.4369 186.675 74.2125C186.953 73.9881 187.399 73.9927 187.671 74.2235C188.486 74.915 189.362 75.5741 190.275 76.1823C190.578 76.3842 190.626 76.7511 190.382 77.0016C190.252 77.1338 190.068 77.2074 189.877 77.2173C189.708 77.2262 189.533 77.1845 189.39 77.0895ZM184.251 72.7241C183.506 71.9156 182.815 71.0621 182.197 70.1881C182 69.91 182.114 69.5535 182.45 69.3911C182.786 69.2287 183.217 69.323 183.414 69.5999C184.003 70.4336 184.662 71.2473 185.373 72.0179C185.609 72.274 185.549 72.6396 185.239 72.8343C185.124 72.907 184.991 72.9453 184.857 72.9524C184.63 72.9642 184.4 72.885 184.251 72.7241Z" fill="#0B2D39" fill-opacity="0.58"/>
<path d="M226.706 77.5391C226.842 77.5321 226.977 77.4925 227.092 77.4185C227.57 77.1136 228.038 76.7955 228.485 76.4734C228.778 76.2618 228.809 75.8937 228.553 75.6512C228.297 75.4098 227.852 75.3842 227.558 75.5951C227.132 75.9025 226.685 76.2058 226.23 76.497C225.922 76.6938 225.865 77.06 226.103 77.3142C226.252 77.4729 226.481 77.551 226.706 77.5391Z" fill="#0B2D39" fill-opacity="0.58"/>
</g>
<path d="M228.577 66.5572C228.665 66.4547 228.665 66.3173 228.577 66.2146L226.062 63.2877C226.835 61.7376 227.314 60.0745 227.451 58.3528L231.268 56.644C231.402 56.584 231.475 56.4606 231.451 56.3363L230.598 52.088C230.573 51.9638 230.456 51.8664 230.306 51.8454L226.025 51.2465C225.223 49.6536 224.12 48.2073 222.783 46.9464L224.021 43.5051C224.064 43.3845 224.01 43.2544 223.886 43.1811L219.649 40.6753C219.525 40.6021 219.358 40.6018 219.234 40.6747L215.693 42.754C213.818 42.115 211.805 41.7186 209.722 41.6052L207.655 38.4504C207.582 38.3397 207.433 38.2793 207.283 38.2999L202.142 39.0044C201.992 39.0251 201.874 39.1222 201.849 39.2462L201.124 42.7839C199.197 43.4469 197.447 44.359 195.922 45.4641L191.758 44.4409C191.612 44.4051 191.455 44.4496 191.366 44.5519L188.334 48.0543C188.246 48.1565 188.245 48.2941 188.334 48.3966L190.849 51.3236C190.076 52.8736 189.596 54.5367 189.459 56.2585L185.642 57.9673C185.508 58.0272 185.435 58.1508 185.46 58.2749L186.313 62.5234C186.338 62.6476 186.455 62.745 186.605 62.766L190.885 63.3649C191.687 64.9578 192.791 66.4041 194.128 67.665L192.89 71.1063C192.847 71.2269 192.9 71.3569 193.024 71.4303L197.262 73.9361C197.386 74.0094 197.552 74.0096 197.676 73.9367L201.217 71.8574C203.093 72.4965 205.105 72.8928 207.188 73.0061L209.255 76.1609C209.328 76.2715 209.477 76.3321 209.628 76.3114L214.768 75.6069C214.918 75.5862 215.036 75.4892 215.061 75.3651L215.786 71.8275C217.713 71.1645 219.463 70.2524 220.988 69.1473L225.152 70.1705C225.298 70.2064 225.456 70.1618 225.544 70.0595L228.577 66.5572Z" fill="#0B2D39" fill-opacity="0.58"/>
<path d="M208.014 61.6969C206.595 61.5998 205.306 61.0512 204.386 60.1526C203.466 59.2546 203.025 58.1138 203.143 56.9407C203.386 54.5195 205.964 52.7169 208.898 52.9142C211.827 53.1161 214.012 55.2498 213.769 57.6704C213.651 58.8435 212.987 59.9083 211.9 60.6688C211.017 61.287 209.939 61.6438 208.805 61.7034C208.544 61.717 208.28 61.7149 208.014 61.6969ZM204.547 57.0368C204.461 57.8999 204.785 58.739 205.463 59.4001C206.139 60.0606 207.087 60.4641 208.131 60.5359C209.175 60.6065 210.19 60.3389 210.99 59.7794C211.789 59.2205 212.277 58.4367 212.364 57.5743C212.543 55.7932 210.936 54.2238 208.781 54.0753C208.587 54.0621 208.394 54.0608 208.205 54.0707C206.297 54.1707 204.71 55.4168 204.547 57.0368Z" fill="#BDD0FB"/>
<path d="M209.202 68.1995C209.647 68.1761 210.094 68.1338 210.543 68.0727C211.435 67.9506 212.313 67.7535 213.154 67.486C213.192 67.4737 213.23 67.4614 213.267 67.4492C213.559 67.3541 213.73 67.1165 213.712 66.8713C213.707 66.8117 213.691 66.7515 213.663 66.6932C213.52 66.394 213.11 66.249 212.749 66.366C211.966 66.622 211.147 66.8092 210.313 66.923H210.313C210.267 66.9294 210.221 66.9352 210.176 66.9411C208.201 67.1958 206.223 67.0339 204.389 66.4917C203.394 66.1973 202.441 65.7901 201.553 65.2752C201.546 65.271 201.539 65.2668 201.531 65.2627C201.509 65.2495 201.487 65.2371 201.466 65.2239C198.888 63.6992 197.182 61.4362 196.664 58.8514C196.596 58.5169 196.55 58.1824 196.525 57.8487C196.353 55.6027 197.114 53.3943 198.72 51.5389C200.565 49.4083 203.303 47.9991 206.43 47.5706C209.555 47.1433 212.699 47.7457 215.277 49.2697C217.855 50.7944 219.561 53.0575 220.079 55.6422C220.145 55.971 220.191 56.3016 220.216 56.632C220.326 58.0651 220.055 59.5015 219.417 60.838C219.378 60.9204 219.363 61.0056 219.369 61.0885C219.386 61.3065 219.552 61.5082 219.814 61.5936C220.176 61.7109 220.585 61.5652 220.728 61.2651C221.442 59.7696 221.745 58.1621 221.623 56.5593C221.595 56.1892 221.544 55.8196 221.47 55.4518C220.89 52.5597 218.982 50.0279 216.097 48.3221C213.213 46.6167 209.699 45.9391 206.199 46.4209C202.701 46.9003 199.637 48.4769 197.574 50.8613C195.777 52.9365 194.925 55.4072 195.118 57.9201C195.146 58.2931 195.198 58.6678 195.273 59.0418C196.397 64.6404 202.492 68.5515 209.202 68.1995Z" fill="#BDD0FB"/>
<path d="M316.031 123.801C316.013 122.958 315.587 122.155 314.847 121.574C314.108 120.992 313.118 120.68 312.097 120.707L229.552 122.887C227.451 122.942 225.8 124.393 225.863 126.13L229.936 239.122C229.998 240.836 231.708 242.195 233.783 242.178L314.67 241.528C315.686 241.52 316.656 241.177 317.365 240.575C318.073 239.973 318.462 239.162 318.444 238.323L316.031 123.801Z" fill="#0B2D39" fill-opacity="0.58"/>
<g opacity="0.43">
<path d="M307.419 129.327H233.912C233.197 129.327 232.623 129.642 232.63 130.203L232.701 135.507C232.708 136.07 233.298 136.677 234.014 136.678L307.731 136.727C308.461 136.727 309.026 136.072 309.002 135.504L308.779 130.216C308.756 129.651 308.147 129.327 307.419 129.327Z" fill="white"/>
<path d="M307.896 140.758L234.069 140.657C233.351 140.656 232.776 141.222 232.784 141.787L232.854 147.208C232.862 147.776 233.453 148.314 234.173 148.315L308.211 148.484C308.944 148.486 309.516 147.946 309.493 147.373L309.267 141.903C309.243 141.333 308.627 140.759 307.896 140.758Z" fill="white"/>
<path d="M308.395 152.978L234.233 152.77C233.512 152.767 232.931 153.043 232.938 153.613L233.01 159.081C233.017 159.654 233.609 160.086 234.332 160.089L308.696 160.363C309.432 160.365 310.011 159.933 309.987 159.355L309.759 153.837C309.735 153.261 309.129 152.98 308.395 152.978Z" fill="white"/>
<path d="M308.88 164.895L234.393 164.581C233.669 164.578 233.087 164.966 233.094 165.541L233.166 171.057C233.174 171.635 233.767 171.961 234.493 171.964L309.184 172.344C309.923 172.348 310.51 172.025 310.485 171.442L310.256 165.875C310.232 165.295 309.618 164.898 308.88 164.895Z" fill="white"/>
<path d="M309.37 176.917L234.555 176.496C233.827 176.492 233.244 176.995 233.251 177.575L233.324 183.14C233.332 183.723 233.931 184.354 234.661 184.359L309.694 184.851C310.437 184.856 311.013 184.226 310.989 183.638L310.757 178.021C310.733 177.435 310.111 176.921 309.37 176.917Z" fill="white"/>
<path d="M309.865 189.045L234.717 188.516C233.987 188.511 233.402 189.13 233.41 189.716L233.483 195.33C233.491 195.918 234.092 196.442 234.825 196.447L310.191 197.049C310.937 197.055 311.52 196.536 311.496 195.942L311.262 190.275C311.238 189.684 310.609 189.05 309.865 189.045Z" fill="white"/>
<path d="M310.381 201.704L234.887 201.06C234.153 201.054 233.562 201.373 233.57 201.963L233.644 207.627C233.652 208.22 234.254 208.635 234.99 208.642L310.693 209.356C311.442 209.363 312.033 208.956 312.008 208.357L311.772 202.639C311.748 202.043 311.128 201.711 310.381 201.704Z" fill="white"/>
<path d="M310.884 214.053L235.053 213.296C234.316 213.288 233.724 213.724 233.732 214.32L233.806 220.034C233.814 220.633 234.417 220.936 235.157 220.944L311.199 221.772C311.952 221.781 312.55 221.487 312.525 220.883L312.287 215.114C312.262 214.512 311.635 214.06 310.884 214.053Z" fill="white"/>
<path d="M311.392 226.511L235.22 225.639C234.48 225.631 233.887 226.186 233.894 226.787L233.97 232.553C233.978 233.157 234.588 233.777 235.331 233.786L311.727 234.734C312.484 234.744 313.071 234.133 313.046 233.523L312.806 227.701C312.781 227.094 312.146 226.52 311.392 226.511Z" fill="white"/>
</g>
<path d="M130.474 239.944C130.474 239.944 157.747 101.622 87.9189 2.51187C87.0085 1.21965 84.7922 1.12559 83.7433 2.34399C67.1769 21.5893 -31.0171 146.781 130.474 239.944Z" fill="#BDD0FB"/>
<path opacity="0.52" d="M81.6713 42.8198C81.6713 42.8198 81.5706 43.5794 81.4302 45.0118C81.2857 46.4433 81.1032 48.5452 80.9199 51.2231C80.7235 53.9003 80.5707 57.1555 80.4407 60.8894C80.4024 62.7574 80.3284 64.744 80.3259 66.8396C80.3153 67.8872 80.3045 68.9615 80.2937 70.0614C80.2985 71.1612 80.3035 72.2867 80.3083 73.436C80.306 74.5855 80.3272 75.7587 80.3575 76.9541C80.3834 78.1495 80.4102 79.3676 80.4373 80.6062C80.4867 81.8446 80.5369 83.1038 80.5878 84.3825C80.6133 85.0221 80.6391 85.6661 80.665 86.3151C80.7022 86.9634 80.7397 87.6168 80.7774 88.2741C80.8552 89.5896 80.9336 90.9225 81.0132 92.2718C81.1035 93.6209 81.2232 94.9849 81.3287 96.3645C81.5222 99.1248 81.8145 101.939 82.0874 104.803C82.2096 106.235 82.4109 107.675 82.5742 109.127C82.7517 110.578 82.9074 112.041 83.1062 113.51C83.3149 114.978 83.5248 116.455 83.7358 117.939C83.8412 118.681 83.9468 119.425 84.0529 120.171C84.1766 120.915 84.3008 121.66 84.4249 122.406C84.6745 123.9 84.9249 125.4 85.1762 126.904C85.4269 128.407 85.7461 129.907 86.0287 131.415C86.3281 132.92 86.5941 134.433 86.9222 135.939C87.2539 137.444 87.5858 138.951 87.9179 140.458L88.4095 142.718C88.5757 143.471 88.7749 144.219 88.9558 144.969C89.3264 146.468 89.6965 147.965 90.0659 149.46C90.4153 150.958 90.8539 152.437 91.2614 153.917C91.6739 155.396 92.085 156.871 92.4946 158.34C93.3674 161.267 94.3016 164.156 95.187 167.019C96.1793 169.858 97.1594 172.662 98.1235 175.421C99.1803 178.156 100.219 180.845 101.237 183.477C102.344 186.085 103.428 188.636 104.483 191.119C105.595 193.585 106.745 195.962 107.82 198.274C108.094 198.851 108.354 199.426 108.632 199.989C108.922 200.549 109.209 201.103 109.494 201.652C110.063 202.751 110.621 203.829 111.168 204.885C111.715 205.941 112.25 206.975 112.774 207.985C113.339 208.981 113.891 209.953 114.429 210.901C115.504 212.797 116.525 214.596 117.483 216.286C118.517 217.946 119.485 219.5 120.38 220.937C120.827 221.655 121.256 222.344 121.666 223.003C122.078 223.661 122.457 224.294 122.869 224.872C126.055 229.546 127.875 232.217 127.875 232.217L127.88 232.224C127.948 232.324 127.905 232.451 127.784 232.507C127.665 232.563 127.513 232.529 127.444 232.432C127.444 232.432 125.556 229.785 122.254 225.154C121.829 224.58 121.437 223.95 121.012 223.296C120.589 222.641 120.145 221.956 119.683 221.241C118.759 219.812 117.759 218.266 116.691 216.615C115.697 214.931 114.64 213.14 113.526 211.252C112.972 210.306 112.404 209.336 111.822 208.344C111.285 207.333 110.736 206.3 110.175 205.245C109.614 204.19 109.041 203.112 108.457 202.014C108.165 201.465 107.87 200.911 107.573 200.352C107.288 199.788 107.02 199.213 106.738 198.637C105.633 196.326 104.451 193.948 103.306 191.481C102.219 188.997 101.101 186.444 99.959 183.835C98.9207 181.197 97.8601 178.502 96.7813 175.761C95.8029 172.994 94.8082 170.182 93.8012 167.334C92.9012 164.463 91.9524 161.564 91.0652 158.628C90.6485 157.155 90.23 155.675 89.8102 154.192C89.3956 152.707 88.9497 151.223 88.5934 149.721C88.2169 148.222 87.8395 146.719 87.4618 145.216C87.2773 144.463 87.0745 143.713 86.9049 142.958L86.4027 140.69C86.0724 139.177 85.7421 137.665 85.4119 136.153C85.0885 134.641 84.8273 133.122 84.5328 131.611C84.2551 130.097 83.9406 128.591 83.695 127.081C83.4488 125.571 83.2034 124.066 82.9589 122.567C82.837 121.817 82.7156 121.069 82.5943 120.323C82.4908 119.574 82.3877 118.828 82.2848 118.083C82.0791 116.593 81.8741 115.111 81.6705 113.638C81.4768 112.164 81.3265 110.695 81.154 109.239C80.9959 107.782 80.7996 106.338 80.6825 104.9C80.4255 102.027 80.1256 99.2047 79.9669 96.4342C79.8775 95.0498 79.7735 93.6811 79.699 92.3276C79.6352 90.9735 79.572 89.6364 79.5098 88.3169C79.4797 87.6574 79.4498 87.0022 79.4201 86.3516C79.4018 85.7011 79.3837 85.0549 79.3656 84.4137C79.3295 83.1313 79.2943 81.8684 79.2594 80.6266C79.2468 79.3845 79.2344 78.1632 79.2224 76.9648C79.2061 75.7659 79.199 74.5899 79.2149 73.438C79.2116 68.8294 79.3743 64.6059 79.5464 60.8652C79.7488 57.1249 79.9649 53.866 80.2133 51.1856C80.4419 48.5042 80.694 46.402 80.8717 44.969C81.0496 43.5363 81.1707 42.7727 81.1707 42.7727L81.1711 42.7705C81.1892 42.6567 81.3156 42.5762 81.4534 42.5912C81.5897 42.6053 81.6861 42.7076 81.6713 42.8198Z" fill="white"/>
<path d="M105.756 253.466C105.756 253.466 105.154 92.0497 12.9887 44.5554C11.3531 43.7126 9.19316 44.3571 8.57642 45.8665C1.40145 63.4268 -29.1553 158.767 105.756 253.466Z" fill="#0B2D39" fill-opacity="0.58"/>
<path opacity="0.52" d="M20.6947 72.8931C20.6947 72.8931 21.4968 75.7535 23.0864 80.7274C23.8788 83.2142 24.8665 86.2287 26.0469 89.6759C27.213 93.1264 28.5997 97.0026 30.1465 101.222C31.7106 105.438 33.4283 109.999 35.3333 114.8C36.2687 117.205 37.2849 119.66 38.2929 122.179C39.3406 124.686 40.3799 127.256 41.4946 129.853C42.601 132.452 43.7246 135.096 44.9063 137.758C46.0642 140.428 47.2809 143.117 48.5089 145.826C48.8151 146.504 49.1223 147.183 49.4299 147.863C49.7452 148.541 50.0611 149.219 50.3776 149.899C51.0104 151.259 51.6449 152.622 52.2808 153.989C53.5663 156.717 54.8916 159.444 56.2197 162.171C57.5831 164.885 58.9151 167.61 60.2989 170.305C60.9946 171.651 61.689 172.994 62.3812 174.334C62.7286 175.003 63.0753 175.672 63.4215 176.339C63.7765 177.003 64.1309 177.665 64.4844 178.327C65.91 180.969 67.285 183.604 68.7262 186.177C70.1574 188.754 71.5317 191.314 72.9711 193.798C73.6808 195.044 74.3848 196.279 75.0822 197.503C75.4277 198.116 75.7716 198.727 76.1138 199.334C76.4656 199.937 76.8155 200.537 77.1636 201.134C78.5635 203.519 79.9002 205.866 81.2613 208.126C81.9434 209.255 82.616 210.369 83.2786 211.466C83.9335 212.567 84.5782 213.651 85.2124 214.717C86.5166 216.833 87.7766 218.878 88.9864 220.841C90.1823 222.811 91.395 224.669 92.5288 226.445C93.6628 228.222 94.7041 229.922 95.734 231.497C97.7993 234.645 99.5998 237.389 101.082 239.65C102.592 241.898 103.778 243.665 104.587 244.87C105.389 246.078 105.816 246.723 105.816 246.723L105.819 246.727C105.896 246.842 105.845 246.988 105.704 247.051C105.568 247.113 105.398 247.074 105.318 246.966C105.318 246.966 104.856 246.337 103.988 245.159C103.127 243.977 101.865 242.244 100.259 240.037C99.4411 238.94 98.6039 237.694 97.6704 236.348C96.7402 234.999 95.7343 233.541 94.6595 231.983C92.5497 228.848 90.1778 225.306 87.7126 221.389C86.4798 219.431 85.1957 217.39 83.8666 215.279C83.2202 214.216 82.5627 213.134 81.8953 212.036C81.2358 210.935 80.566 209.817 79.8873 208.683C77.2227 204.128 74.4116 199.325 71.6779 194.29C68.9201 189.264 66.1565 184.039 63.4375 178.699C62.0496 176.04 60.7543 173.323 59.3808 170.621C58.027 167.912 56.7253 165.173 55.3921 162.445C54.0985 159.704 52.8049 156.963 51.5164 154.233C50.8856 152.864 50.256 151.497 49.6281 150.135C49.3142 149.453 49.0008 148.773 48.6878 148.094C48.3827 147.413 48.0784 146.732 47.7744 146.053C46.5565 143.338 45.3498 140.644 44.2017 137.968C43.0301 135.3 41.9162 132.652 40.8196 130.047C39.7147 127.445 38.6851 124.87 37.6469 122.358C36.6483 119.835 35.6416 117.375 34.7153 114.966C32.8284 110.156 31.128 105.587 29.5802 101.364C28.0547 97.1354 26.675 93.2546 25.5001 89.8034C24.3166 86.3542 23.3263 83.3374 22.5316 80.8481C20.9382 75.8717 20.1313 73.0021 20.1313 73.0021C20.0946 72.8735 20.191 72.7447 20.3463 72.7145C20.5018 72.6841 20.6575 72.7638 20.6943 72.8922L20.6947 72.8931Z" fill="white"/>
<path d="M265.579 90.6214C265.559 89.8963 265.177 89.2105 264.523 88.7264C263.87 88.2424 263.003 88.0033 262.129 88.066L173.834 94.3874C172.192 94.505 170.881 95.6406 170.881 97.0026V243.705C170.881 245.155 172.405 246.221 174.159 246.221H266.619C267.474 246.221 268.292 245.991 268.89 245.485C269.488 244.98 269.813 244.324 269.794 243.618L265.579 90.6214Z" fill="#0B2D39" fill-opacity="0.58"/>
<g opacity="0.68">
<path d="M188.369 101.623L181.63 102C180.891 102.04 180.513 102.604 180.513 103.259V237.077C180.513 237.746 180.677 238.542 181.424 238.542H188.457C189.208 238.542 189.825 237.871 189.825 237.199L189.724 102.804C189.723 102.146 189.112 101.582 188.369 101.623Z" fill="#BDD0FB"/>
<path opacity="0.7" d="M204.718 100.737L197.668 101.119C196.92 101.16 196.198 101.733 196.199 102.393L196.368 237.196C196.369 237.87 197.1 238.542 197.856 238.542H204.982C205.743 238.542 206.249 237.867 206.247 237.191L205.975 101.931C205.974 101.269 205.471 100.696 204.718 100.737Z" fill="#BDD0FB"/>
<path d="M221.28 99.8391L214.138 100.226C213.38 100.267 212.943 100.829 212.945 101.493L213.292 237.188C213.294 237.866 213.738 238.542 214.504 238.542H221.724C222.495 238.542 223.306 237.864 223.304 237.183L222.851 101.024C222.849 100.358 222.043 99.7977 221.28 99.8391Z" fill="#BDD0FB"/>
<path d="M238.06 98.9299L230.824 99.322C230.056 99.3636 229.495 99.9358 229.498 100.604L230.023 237.18C230.025 237.862 230.597 238.542 231.373 238.542H238.689C239.47 238.542 240.17 237.86 240.167 237.175L239.533 100.128C239.53 99.4572 238.833 98.888 238.06 98.9299Z" fill="#BDD0FB"/>
<path d="M255.062 98.0081L247.73 98.4054C246.952 98.4476 246.263 99.0302 246.267 99.7029L246.975 237.171C246.978 237.858 247.68 238.542 248.467 238.542H255.881C256.673 238.542 257.258 237.856 257.254 237.166L256.434 99.2199C256.43 98.5445 255.845 97.9657 255.062 98.0081Z" fill="#BDD0FB"/>
</g>
<path d="M196.45 121.121C196.437 120.355 196.051 119.625 195.377 119.098C194.704 118.571 193.801 118.29 192.874 118.321L122.446 120.655C121.237 120.695 120.291 121.529 120.319 122.529L123.894 246.969L195.108 246.251C196.021 246.242 196.892 245.933 197.529 245.392C198.166 244.852 198.517 244.124 198.504 243.37L196.45 121.121Z" fill="#BDD0FB"/>
<g opacity="0.5">
<path d="M139.73 144.057L128.397 144.06L128.263 128.05H139.621L139.73 144.057Z" fill="white"/>
<path d="M155.998 144.027L144.707 144.03L144.609 128.05H155.925L155.998 144.027Z" fill="white"/>
<path d="M173.105 143.996L161.858 143.998L161.798 128.05H173.069L173.105 143.996Z" fill="white"/>
<path d="M190.172 144.002L178.731 143.986L178.469 128.05H190.172V144.002Z" fill="white"/>
<path d="M139.885 166.788L128.587 166.838L128.454 150.947L139.777 150.917L139.885 166.788Z" fill="white"/>
<path d="M156.103 166.716L144.847 166.766L144.749 150.904L156.03 150.875L156.103 166.716Z" fill="white"/>
<path d="M173.156 166.641L161.944 166.69L161.884 150.859L173.12 150.83L173.156 166.641Z" fill="white"/>
<path d="M190.172 166.568L178.765 166.617L178.86 150.816L190.172 150.787V166.568Z" fill="white"/>
<path d="M140.044 190.092L128.782 190.172L128.65 174.382L139.936 174.322L140.044 190.092Z" fill="white"/>
<path d="M156.21 189.977L144.99 190.057L144.893 174.296L156.137 174.236L156.21 189.977Z" fill="white"/>
<path d="M173.209 189.856L162.033 189.936L161.973 174.205L173.173 174.146L173.209 189.856Z" fill="white"/>
<path d="M190.172 189.739L178.801 189.819L178.895 174.118L190.172 174.059V189.739Z" fill="white"/>
<path d="M140.199 212.875L128.973 212.983L128.845 197.667L140.095 197.577L140.199 212.875Z" fill="white"/>
<path d="M156.314 212.718L145.13 212.826L145.036 197.537L156.244 197.448L156.314 212.718Z" fill="white"/>
<path d="M173.26 212.553L162.119 212.662L162.061 197.402L173.226 197.313L173.26 212.553Z" fill="white"/>
<path d="M190.172 212.394L178.835 212.502L178.931 197.271L190.172 197.183V212.394Z" fill="white"/>
<path d="M140.356 235.885L129.166 236.023L129.039 220.804L140.253 220.685L140.356 235.885Z" fill="white"/>
<path d="M156.42 235.687L145.271 235.825L145.178 220.633L156.35 220.515L156.42 235.687Z" fill="white"/>
<path d="M173.312 235.479L162.206 235.616L162.149 220.453L173.278 220.335L173.312 235.479Z" fill="white"/>
<path d="M190.172 235.277L178.87 235.413L178.966 220.279L190.172 220.161V235.277Z" fill="white"/>
</g>
<path d="M221.587 185.847C221.545 185.849 221.503 185.85 221.461 185.849L166.859 185.803C165.509 185.802 164.416 184.881 164.417 183.745C164.419 182.609 165.518 181.67 166.864 181.691L221.467 181.737C222.817 181.738 223.909 182.659 223.908 183.795C223.907 184.895 222.878 185.793 221.587 185.847Z" fill="url(#paint1_linear_212_193)"/>
<path d="M145.713 140.77C145.732 140.802 145.751 140.833 145.769 140.865L168.743 182.621C169.311 183.653 168.781 184.877 167.558 185.355C166.336 185.833 164.862 185.388 164.317 184.351L141.342 142.595C140.774 141.563 141.304 140.339 142.527 139.861C143.711 139.399 145.11 139.806 145.713 140.77Z" fill="url(#paint2_linear_212_193)"/>
<path d="M226.838 252.96C226.838 252.96 227.316 255.153 227.504 257.757C227.585 258.867 226.59 259.831 225.252 259.938C220.591 260.312 209.981 261.002 203.207 260.194C202.258 260.08 201.881 259.117 202.583 258.577C205.376 256.426 212.122 252.242 223.225 251.327L226.838 252.96Z" fill="url(#paint3_linear_212_193)"/>
<path d="M229.155 248.016L226.798 252.79C226.476 253.445 225.673 253.851 224.822 253.778C224.245 253.728 223.562 253.636 222.897 253.47C221.568 253.136 220.817 251.971 221.215 250.87L222.994 245.953L229.155 248.016Z" fill="url(#paint4_linear_212_193)"/>
<path d="M269.444 256.763C269.444 256.763 264.725 260.026 262.886 264.212C262.38 265.363 263.449 266.576 264.931 266.576H274.642C276.063 266.576 277.153 265.519 276.905 264.362C276.287 261.472 274.503 256.775 269.444 256.763Z" fill="url(#paint5_linear_212_193)"/>
<path d="M275.289 252.516C275.289 252.516 274.336 256.003 273.603 258.307C273.47 258.725 272.93 258.955 272.438 258.809C270.968 258.375 269.772 258.183 268.903 258.279C268.501 258.324 268.15 258.048 268.145 257.713L268.054 251.921L275.289 252.516Z" fill="url(#paint6_linear_212_193)"/>
<path d="M250.193 174.052L221.49 246.425C221.49 246.425 226.995 249.405 229.618 249.281L263.71 191.117C263.71 191.117 269.676 226.956 266.785 252.685L276.55 253.301C276.55 253.301 292.428 187.55 280.402 165.029L250.193 174.052Z" fill="url(#paint7_linear_212_193)"/>
<path d="M263.526 190.492C263.537 190.492 263.549 190.492 263.561 190.491C263.713 190.475 263.821 190.36 263.802 190.234L262.688 182.927C262.669 182.801 262.531 182.713 262.377 182.728C262.225 182.744 262.117 182.858 262.136 182.984L263.25 190.291C263.268 190.408 263.387 190.492 263.526 190.492Z" fill="url(#paint8_linear_212_193)"/>
<path d="M244.811 110.368C244.811 110.368 268.066 112.074 264.776 125.769C264.776 125.769 277.631 145.763 283.64 169.316C283.836 170.082 283.215 170.83 282.281 170.962L243.554 176.443C242.486 176.594 241.456 176.043 241.184 175.176L231.931 145.619L228.325 159.361L216.869 156.894L226.513 116.513C226.513 116.513 227.859 110.621 244.811 110.368Z" fill="#2596BE"/>
<path d="M231.624 144.032C231.644 144.032 231.665 144.031 231.685 144.027C231.841 143.999 231.94 143.872 231.906 143.743L228.678 131.492C228.644 131.364 228.492 131.283 228.335 131.31C228.179 131.338 228.08 131.465 228.114 131.594L231.342 143.845C231.372 143.956 231.491 144.032 231.624 144.032Z" fill="#0B2D39"/>
<path d="M234.072 180.753C235.292 180.198 236.72 180.045 238.071 180.323L240.765 180.877C241.338 180.995 241.905 180.669 241.971 180.184L244.76 159.672C248.246 161.04 253.276 160.877 254.935 160.777L248.517 184.959H226.06L234.072 180.753Z" fill="url(#paint9_linear_212_193)"/>
<path d="M174.403 136.259L175.082 134.395C175.472 133.322 176.432 132.454 177.69 132.036L189.966 127.955C189.966 127.955 190.152 126.654 187.373 125.769C184.593 124.885 185.243 122.312 185.243 122.312C185.243 122.312 189.04 123.744 194.598 126.015C197.778 127.313 199.561 129.606 200.507 131.331L228.325 159.361L225.059 161.216C220.764 163.655 214.857 162.457 212.417 158.651L197.347 134.767C189.781 136.645 182.124 137.004 174.403 136.259Z" fill="url(#paint10_linear_212_193)"/>
<path d="M237.278 97.2919L244.43 113.837C244.43 113.837 238.097 117.929 233.475 116.546L229.871 107.062C229.871 107.062 232.623 95.4703 237.278 97.2919Z" fill="url(#paint11_linear_212_193)"/>
<path d="M215.931 91.35C215.931 91.605 222.821 107.47 222.821 107.47L233.698 104.026L229.871 88.1873C229.871 88.1873 215.931 87.0818 215.931 91.35Z" fill="url(#paint12_linear_212_193)"/>
<path d="M227.963 92.046L230.767 100.254C230.803 100.359 230.822 100.465 230.822 100.574C230.823 101.244 230.622 103.547 227.784 103.234C225.208 102.949 222.852 102.722 221.354 103.305C220.681 103.567 220.359 104.207 220.611 104.785C221.237 106.226 222.721 109.453 224.529 112.093C224.895 112.629 225.7 112.837 226.378 112.582C228.42 111.814 232.674 110.095 235.704 108.048C236.114 107.771 236.311 107.335 236.214 106.905C235.737 104.805 234.317 98.4192 234.254 96.5891C234.195 94.8713 236.527 93.5601 237.554 93.0672C237.891 92.9055 238.13 92.6395 238.221 92.3266C238.544 91.221 238.817 88.7188 234.956 88.1674C234.147 88.052 233.62 87.4126 233.784 86.7485C234.111 85.4263 234.007 83.4804 230.969 82.7637C227.881 82.0353 225.938 83.5715 224.95 84.7495C224.55 85.2258 223.802 85.3803 223.162 85.1439C222.798 85.0093 222.357 85.0033 221.884 85.3331C221.246 85.7774 220.276 85.6422 219.807 85.072C218.907 83.9766 217.271 82.8831 214.502 83.6237C209.588 84.9378 209.823 89.6205 211.624 92.1663C213.425 94.712 218.655 93.0369 221.131 91.35C223.013 90.0674 225.879 90.8346 227.145 91.2761C227.546 91.4159 227.844 91.6998 227.963 92.046Z" fill="url(#paint13_linear_212_193)"/>
<path d="M235.239 99.5857C235.239 99.5857 232.331 95.0385 234.254 93.6107C236.177 92.1828 239.436 92.4165 239.348 95.9723C239.239 100.395 235.239 99.5857 235.239 99.5857Z" fill="url(#paint14_linear_212_193)"/>
<path d="M252.99 160.987C254.577 160.987 255.71 160.888 255.833 160.876L256.039 160.857L264.507 128.227C264.54 128.098 264.441 127.972 264.285 127.944C264.128 127.916 263.976 127.999 263.943 128.127L255.563 160.419C254.303 160.51 247.574 160.879 244.021 158.799L251.356 130.45L249.825 128.065C249.751 127.949 249.576 127.905 249.436 127.966C249.295 128.028 249.241 128.172 249.316 128.289L250.749 130.52L243.38 159L243.527 159.091C246.094 160.685 250.228 160.987 252.99 160.987Z" fill="#0B2D39"/>
<path d="M206.346 189.675C206.567 190.296 227.713 243.99 233.074 257.602C233.692 259.171 231.967 260.711 229.595 260.711C227.941 260.711 226.5 259.94 226.1 258.841L202.626 194.406L206.346 189.675Z" fill="#7D97F4"/>
<path d="M194.766 189.675C194.545 190.296 173.399 243.99 168.038 257.602C167.42 259.171 169.146 260.711 171.517 260.711C173.171 260.711 174.612 259.94 175.012 258.841L198.486 194.406L194.766 189.675Z" fill="#7D97F4"/>
<path d="M193.885 187.532H207.055V196.273C207.055 197.53 205.838 198.548 204.336 198.548H202.529V218.183C202.529 219.134 201.607 219.905 200.47 219.905C199.333 219.905 198.411 219.134 198.411 218.183V198.548H197.495C195.501 198.548 193.885 197.196 193.885 195.529L193.885 187.532Z" fill="#7D97F4"/>
<path d="M247.291 185.432H155.14C153.853 185.432 152.728 186.014 152.406 186.846L151.119 190.174C150.656 191.371 152.017 192.537 153.87 192.53L248.426 192.167C250.259 192.16 251.596 191.008 251.148 189.822L250.029 186.857C249.713 186.019 248.585 185.432 247.291 185.432Z" fill="#7D97F4"/>
<defs>
<linearGradient id="paint0_linear_212_193" x1="345.617" y1="270.44" x2="146.836" y2="59.9989" gradientUnits="userSpaceOnUse">
<stop stop-color="#DAE3FE"/>
<stop offset="1" stop-color="#E9EFFD"/>
</linearGradient>
<linearGradient id="paint1_linear_212_193" x1="452.772" y1="-155.515" x2="421.441" y2="-95.1174" gradientUnits="userSpaceOnUse">
<stop stop-color="#09005D"/>
<stop offset="1" stop-color="#1A0F91"/>
</linearGradient>
<linearGradient id="paint2_linear_212_193" x1="-5601.07" y1="-444.56" x2="-5523.7" y2="-432.779" gradientUnits="userSpaceOnUse">
<stop stop-color="#09005D"/>
<stop offset="1" stop-color="#1A0F91"/>
</linearGradient>
<linearGradient id="paint3_linear_212_193" x1="214.476" y1="292.678" x2="214.213" y2="326.356" gradientUnits="userSpaceOnUse">
<stop stop-color="#09005D"/>
<stop offset="1" stop-color="#1A0F91"/>
</linearGradient>
<linearGradient id="paint4_linear_212_193" x1="224.297" y1="255.069" x2="225.749" y2="241.338" gradientUnits="userSpaceOnUse">
<stop stop-color="#FEBBBA"/>
<stop offset="1" stop-color="#FF928E"/>
</linearGradient>
<linearGradient id="paint5_linear_212_193" x1="269.526" y1="293.108" x2="269.264" y2="326.786" gradientUnits="userSpaceOnUse">
<stop stop-color="#09005D"/>
<stop offset="1" stop-color="#1A0F91"/>
</linearGradient>
<linearGradient id="paint6_linear_212_193" x1="270.506" y1="259.752" x2="271.92" y2="246.37" gradientUnits="userSpaceOnUse">
<stop stop-color="#FEBBBA"/>
<stop offset="1" stop-color="#FF928E"/>
</linearGradient>
<linearGradient id="paint7_linear_212_193" x1="284.903" y1="209.165" x2="221.49" y2="209.165" gradientUnits="userSpaceOnUse">
<stop stop-color="#09005D"/>
<stop offset="1" stop-color="#1A0F91"/>
</linearGradient>
<linearGradient id="paint8_linear_212_193" x1="354.173" y1="80.918" x2="311.177" y2="153.852" gradientUnits="userSpaceOnUse">
<stop stop-color="#09005D"/>
<stop offset="1" stop-color="#1A0F91"/>
</linearGradient>
<linearGradient id="paint9_linear_212_193" x1="254.934" y1="172.315" x2="226.059" y2="172.315" gradientUnits="userSpaceOnUse">
<stop stop-color="#FEBBBA"/>
<stop offset="1" stop-color="#FF928E"/>
</linearGradient>
<linearGradient id="paint10_linear_212_193" x1="228.325" y1="142.398" x2="174.403" y2="142.398" gradientUnits="userSpaceOnUse">
<stop stop-color="#FEBBBA"/>
<stop offset="1" stop-color="#FF928E"/>
</linearGradient>
<linearGradient id="paint11_linear_212_193" x1="247.738" y1="117.402" x2="232.578" y2="98.5831" gradientUnits="userSpaceOnUse">
<stop stop-color="#FEBBBA"/>
<stop offset="1" stop-color="#FF928E"/>
</linearGradient>
<linearGradient id="paint12_linear_212_193" x1="220.523" y1="91.4618" x2="238.587" y2="120.376" gradientUnits="userSpaceOnUse">
<stop stop-color="#FEBBBA"/>
<stop offset="1" stop-color="#FF928E"/>
</linearGradient>
<linearGradient id="paint13_linear_212_193" x1="238.391" y1="97.6328" x2="210.443" y2="97.6328" gradientUnits="userSpaceOnUse">
<stop stop-color="#09005D"/>
<stop offset="1" stop-color="#1A0F91"/>
</linearGradient>
<linearGradient id="paint14_linear_212_193" x1="254.79" y1="111.721" x2="239.63" y2="92.9023" gradientUnits="userSpaceOnUse">
<stop stop-color="#FEBBBA"/>
<stop offset="1" stop-color="#FF928E"/>
</linearGradient>
</defs>
</svg>
