<?xml version="1.0" encoding="UTF-8" standalone="no"?>
<!-- Created with Inkscape (http://www.inkscape.org/) -->

<svg
   width="122.29945mm"
   height="145.52083mm"
   viewBox="0 0 122.29945 145.52083"
   version="1.1"
   id="svg5"
   xml:space="preserve"
   inkscape:export-filename="location-pin.svg"
   inkscape:export-xdpi="96"
   inkscape:export-ydpi="96"
   xmlns:inkscape="http://www.inkscape.org/namespaces/inkscape"
   xmlns:sodipodi="http://sodipodi.sourceforge.net/DTD/sodipodi-0.dtd"
   xmlns="http://www.w3.org/2000/svg"
   xmlns:svg="http://www.w3.org/2000/svg"><sodipodi:namedview
     id="namedview7"
     pagecolor="#ffffff"
     bordercolor="#000000"
     borderopacity="0.25"
     inkscape:showpageshadow="2"
     inkscape:pageopacity="0.0"
     inkscape:pagecheckerboard="0"
     inkscape:deskcolor="#d1d1d1"
     inkscape:document-units="mm"
     showgrid="false" /><defs
     id="defs2" /><g
     inkscape:label="Layer 1"
     inkscape:groupmode="layer"
     id="layer1"
     transform="translate(-87.172854,-0.33635437)"><g
       style="fill:#000000"
       id="g1058"
       transform="matrix(8.0087801,0,0,6.6145833,20.174164,-32.736554)"><path
         d="m 16.001,5 c -4.216,0 -7.714,3.418 -7.634,7.634 0.029,1.578 0.719,2.824 1.351,4.024 0.242,0.461 6.264,10.332 6.264,10.332 V 27 L 15.983,26.993 15.985,27 v -0.01 l 6.531,-10.377 c 0.407,-0.703 0.793,-1.771 0.793,-1.771 A 7.631,7.631 0 0 0 16.001,5 Z M 16,16.019 A 3.895,3.895 0 0 1 12.104,12.122 3.898,3.898 0 1 1 16,16.019 Z"
         id="path1049" /></g></g></svg>
